<?xml version="1.0" standalone="no"?>
<!DOCTYPE svg PUBLIC "-//W3C//DTD SVG 1.1//EN" "http://www.w3.org/Graphics/SVG/1.1/DTD/svg11.dtd" >
<!--
2013-9-30: Created.
-->
<svg>
<metadata>
Created by iconfont
</metadata>
<defs>

<font id="iconfont" horiz-adv-x="1024" >
  <font-face
    font-family="iconfont"
    font-weight="500"
    font-stretch="normal"
    units-per-em="1024"
    ascent="896"
    descent="-128"
  />
    <missing-glyph />
    
    <glyph glyph-name="shebeiguanli1" unicode="&#59151;" d="M583.608409 257.209428l-27.541263 0c-11.411911 0-23.484877 8.903787-26.877137 19.789719l-14.287401 34.69315c-5.364171 10.037611-3.15383 24.845874 4.866844 32.906457l19.546172 19.511379c3.258207 3.263323 5.284353 7.777127 5.284353 12.758582 0 4.986571-1.99647 9.494235-5.284353 12.772908l-33.168424 33.113165c-3.258207 3.258207-7.756661 5.27412-12.727882 5.27412s-9.495258-2.026146-12.757558-5.27412l-19.541055-19.542078c-8.020674-8.05035-22.884197-10.259668-32.931017-4.866844l-34.667567 14.267958c-10.836813 3.366677-19.781532 15.464203-19.781532 26.866904l0 27.576055c0 4.603855-1.75804 9.223059-5.284353 12.743232-3.526313 3.526313-8.129144 5.28947-12.732999 5.28947l-46.840818 0c-4.627391 0-9.231245-1.763157-12.757558-5.28947-3.520173-3.520173-5.288446-8.139378-5.288446-12.743232l0-27.576055c0-11.402701-8.860808-23.500227-19.750833-26.866904L236.393453 398.345866c-10.07138-5.392824-24.856108-3.208065-32.875758 4.866844l-19.620873 19.527752c-3.263323 3.2623-7.786337 5.258771-12.757558 5.258771-4.971222 0-9.469676-2.025123-12.732999-5.273097l-33.083489-33.083489c-3.264347-3.263323-5.26491-7.762801-5.288446-12.744255 0-4.970198 2.025123-9.486048 5.288446-12.747325l19.510356-19.551288c8.075933-8.075933 10.285251-22.873963 4.866844-32.906457l-14.282285-34.717709c-3.366677-10.891048-15.438621-19.794835-26.851555-19.794835L80.998267 257.209428c-4.627391 0-9.231245-1.763157-12.752442-5.28947-3.52529-3.52529-5.288446-8.139378-5.288446-12.757558l0-46.830585c0-4.614088 1.76418-9.231245 5.288446-12.758582 3.521197-3.510964 8.125051-5.273097 12.752442-5.273097l27.566846 0c11.412934-0.024559 23.460318-8.92937 26.828019-19.790742l14.305821-34.692127c5.369288-10.06217 3.183506-24.910343-4.866844-32.931017l-19.565615-19.515473c-3.263323-3.2623-5.288446-7.773034-5.288446-12.768815 0-4.970198 2.025123-9.495258 5.288446-12.758582l33.168424-33.113165c3.257184-3.2623 7.756661-5.27412 12.727882-5.27412s9.495258 2.01182 12.757558 5.27412L203.488019 28.257969c8.025791 8.040117 22.805402 10.245342 32.825616 4.801353l34.772968-14.266935c10.890025-3.382027 19.750833-15.454994 19.750833-26.861788l0-27.487028c0-4.603855 1.763157-9.231245 5.288446-12.752442 3.526313-3.501754 8.129144-5.26491 12.757558-5.26491l46.816259 0c4.627391 0 9.231245 1.763157 12.756535 5.26491 3.526313 3.520173 5.288446 8.148587 5.288446 12.752442l0 27.487028c0 11.406794 8.93858 23.479761 19.776416 26.861788l34.721803 14.266935c10.045797 5.442966 24.879644 3.233648 32.955576-4.801353l19.437701-19.511379c3.25923-3.27765 7.757684-5.313006 12.758582-5.313006 4.970198-0.01535 9.494235 1.995447 12.752442 5.273097l33.168424 33.138748c3.287883 3.27765 5.284353 7.78736 5.284353 12.768815 0 4.985548-2.022053 9.495258-5.284353 12.758582l-19.541055 19.515473c-8.025791 8.025791-10.231015 22.868847-4.866844 32.931017l14.282285 34.692127c3.391237 10.861372 15.518438 19.765159 26.882254 19.765159l27.536146 0c4.603855 0 9.207709 1.763157 12.727882 5.288446 3.52529 3.526313 5.288446 8.139378 5.288446 12.753465l0 46.844911c0 4.618181-1.763157 9.231245-5.288446 12.757558C592.816119 255.447295 588.212264 257.209428 583.608409 257.209428L583.608409 257.209428zM332.368318 112.219219c-57.230446 0-103.602589 46.343491-103.602589 103.562681 0 57.20998 46.372144 103.57803 103.602589 103.57803 57.20998 0 103.579053-46.36805 103.579053-103.57803C435.947372 158.56271 389.578298 112.219219 332.368318 112.219219L332.368318 112.219219zM956.041724 487.618075c-2.552126 2.557242-5.889127 3.834328-9.227152 3.834328l-19.948331 0c-8.268314 0-17.019629 6.449899-19.47761 14.33652l-10.348696 25.137517c-3.883447 7.270591-2.284019 17.997909 3.52529 23.836895l14.163581 14.137998c2.359744 2.364861 3.829212 5.631254 3.829212 9.242502 0 3.610224-1.450025 6.877641-3.829212 9.251711l-24.030299 23.991414c-2.363837 2.364861-5.621021 3.824095-9.222035 3.824095s-6.878664-1.469468-9.241478-3.824095l-14.163581-14.157441c-5.811356-5.829775-16.57756-7.429203-23.857361-3.521197l-25.112957 10.334369c-7.851828 2.438539-14.332427 11.20418-14.332427 19.4684l0 19.976984c0 3.337002-1.276063 6.67912-3.829212 9.237385-2.552126 2.553149-5.89015 3.829212-9.227152 3.829212l-33.93795 0c-3.352351 0-6.689353-1.277086-9.242502-3.829212-2.552126-2.558265-3.828188-5.900384-3.828188-9.237385l0-19.976984c0-8.264221-6.421246-17.029862-14.31196-19.4684l-25.134447-10.334369c-7.300266-3.906983-18.007119-2.329045-23.821545 3.521197l-14.213723 14.148231c-2.363837 2.363837-5.641487 3.814886-9.246595 3.814886-3.601015 0-6.858198-1.471514-9.222035-3.818979l-23.971971-23.977088c-2.363837-2.363837-3.809769-5.622044-3.828188-9.231245 0-3.601015 1.465374-6.868431 3.828188-9.232269l14.137998-14.168698c5.850242-5.849218 7.453762-16.566304 3.52529-23.836895l-10.343579-25.157983c-2.438539-7.886621-11.18883-14.33652-19.457144-14.33652l-19.968797 0.020466c-3.356444 0-6.689353-1.282203-9.241478-3.834328-2.553149-2.553149-3.834328-5.895267-3.834328-9.242502l0-33.927717c0-3.342118 1.281179-6.690376 3.834328-9.242502 2.552126-2.542916 5.885034-3.818979 9.241478-3.818979l19.968797 0c8.268314-0.019443 16.998139-6.470365 19.436678-14.34266l10.364045-25.133424c3.889587-7.291057 2.309602-18.047028-3.52529-23.862477l-14.173814-14.137998c-2.363837-2.358721-3.833305-5.631254-3.833305-9.251711 0-3.601015 1.470491-6.877641 3.833305-9.242502l24.026206-23.991414c2.363837-2.362814 5.621021-3.818979 9.227152-3.818979 3.601015 0 6.878664 1.456165 9.241478 3.818979l14.177907 14.149255c5.810333 5.824659 16.522302 7.424086 23.782659 3.480264l25.187659-10.339486c7.890714-2.447748 14.31196-11.192923 14.31196-19.462261l0-19.913539c0-3.338025 1.281179-6.689353 3.833305-9.241478 2.553149-2.537799 5.885034-3.814886 9.242502-3.814886l33.918507 0c3.356444 0 6.689353 1.276063 9.241478 3.814886 2.553149 2.552126 3.834328 5.904477 3.834328 9.241478l0 19.913539c0 8.269337 6.475482 17.013489 14.32731 19.462261l25.157983 10.339486c7.2798 3.943822 18.021445 2.344395 23.876804-3.480264l14.07967-14.137998c2.363837-2.37407 5.621021-3.848655 9.246595-3.848655 3.601015-0.010233 6.878664 1.450025 9.236362 3.817955l24.030299 24.010857c2.384303 2.373047 3.834328 5.641487 3.834328 9.252735 0 3.609201-1.470491 6.877641-3.834328 9.240455l-14.158465 14.137998c-5.810333 5.815449-7.408737 16.572444-3.52529 23.862477l10.348696 25.133424c2.457981 7.871271 11.243065 14.323217 19.472494 14.323217l19.953448 0c3.338025 0 6.66991 1.277086 9.222035 3.829212 2.558265 2.552126 3.834328 5.898337 3.834328 9.240455l0 33.938973C959.870936 481.721785 958.594873 485.064926 956.041724 487.618075L956.041724 487.618075zM764.791935 386.402859c-41.466414 0-75.063603 33.5757-75.063603 75.03188 0 41.447994 33.596166 75.04416 75.063603 75.04416 41.446971 0 75.043137-33.596166 75.043137-75.04416C839.835072 419.978559 806.238906 386.402859 764.791935 386.402859L764.791935 386.402859zM764.791935 386.402859"  horiz-adv-x="1024" />

    
    <glyph glyph-name="guizeguanli" unicode="&#58928;" d="M535.05867 376.232219 535.05867 577.724279c0 12.747325-10.344602 23.092951-23.099091 23.092951-12.768815 0-23.109324-10.345626-23.098068-23.092951l-0.005117-201.49206c-32.704866-9.900487-56.521295-40.252773-56.521295-76.191286 0-35.938514 23.816428-66.289776 56.521295-76.191286l-0.005117-201.491037c0-6.390547 2.592035-12.160971 6.764054-16.344247 4.183276-4.184299 9.959839-6.748704 16.344247-6.748704 12.753465 0 23.099091 10.324136 23.099091 23.081695L535.05867 223.849646c32.698726 9.911744 56.510038 40.252773 56.510038 76.191286C591.567685 335.979446 567.757396 366.320475 535.05867 376.232219zM511.95344 264.658074c-19.550265 0-35.388998 15.842827-35.388998 35.382858 0 19.539009 15.838733 35.383882 35.388998 35.383882 19.541055 0 35.384905-15.84385 35.384905-35.383882C547.339368 280.5009 531.494495 264.658074 511.95344 264.658074zM287.211862 110.677097 287.211862 276.936725 287.211862 577.724279c0 12.747325-10.334369 23.092951-23.092951 23.092951-12.768815 0-23.109324-10.345626-23.099091-23.092951L241.009587 110.677097c-32.69975-9.901511-56.516178-40.251749-56.516178-76.191286 0-43.969421 35.644825-79.614246 79.619362-79.614246 43.975561 0 79.620385 35.644825 79.620385 79.614246C343.733157 70.425348 319.916728 100.766376 287.211862 110.677097zM264.112772-0.897048c-19.544125 0-35.388998 15.842827-35.388998 35.382858 0 19.550265 15.84385 35.395138 35.388998 35.395138 19.546172 0 35.384905-15.84385 35.384905-35.395138C299.497677 14.946802 283.658943-0.897048 264.112772-0.897048zM759.795131 645.210299c-43.969421 0-79.615269-35.644825-79.615269-79.614246 0-35.939537 23.811312-66.291822 56.522318-76.19231l-0.011256-467.046159c0-6.390547 2.585895-12.160971 6.758937-16.344247 4.194532-4.184299 9.953699-6.748704 16.344247-6.748704 12.758582 0 23.104207 10.324136 23.104207 23.081695L782.898315 276.936725 782.898315 489.403744c32.69975 9.911744 56.511062 40.252773 56.511062 76.19231C839.409376 609.565475 803.764552 645.210299 759.795131 645.210299zM759.795131 530.199892c-19.549242 0-35.383882 15.844873-35.383882 35.396161 0 19.537985 15.83464 35.383882 35.383882 35.383882 19.540032 0 35.384905-15.844873 35.384905-35.383882C795.180036 546.045789 779.334139 530.199892 759.795131 530.199892z"  horiz-adv-x="1024" />

    
    <glyph glyph-name="cipan" unicode="&#58923;" d="M588.152 680.887l59.657 0 0-142.978-59.657 0 0 142.978ZM295.727 139.286l434.59 0 0-59.66-434.59 0 0 59.66ZM808.364 805.867 4.109 805.867l0-1017.858 1017.824 0L1021.933 592.295 808.364 805.867zM313.727 472.589 313.727 746.207l398.59 0L712.317 472.59 313.727 472.589 313.727 472.589zM771.976 412.93 771.976 746.207l11.685 0 178.614-178.633 0-719.906L63.769-152.332 63.769 746.207l190.298 0L254.067 412.93 771.976 412.93zM295.727 14.306l434.59 0 0-59.659-434.59 0 0 59.659Z"  horiz-adv-x="1024" />

    
    <glyph glyph-name="gpu05" unicode="&#58937;" d="M949.268468 790.252267 73.217917 790.252267c-40.269661 0-73.217917-32.948256-73.217917-73.217917l0-662.672536c0-40.269661 32.948256-73.217917 73.217917-73.217917l876.050121 0c40.269661 0 73.217917 32.948256 73.217917 73.217917L1022.485954 717.03435C1022.486385 757.304441 989.538128 790.252267 949.268468 790.252267zM26.90757 717.532001c0 24.161882 19.768695 43.930578 43.930578 43.930578l880.809658 0c24.161882 0 43.930578-19.768695 43.930578-43.930578l0-117.514414L26.90757 600.017586 26.90757 717.532001zM951.647806 8.051898 70.838148 8.051898c-24.161882 0-43.930578 19.768695-43.930578 43.930578L26.90757 573.110016l968.670813 0 0-521.12754C995.578814 27.820593 975.809688 8.051898 951.647806 8.051898zM121.084067 722.284219c-22.290957 0-40.361356-18.070398-40.361356-40.361356 0-22.290957 18.070398-40.361356 40.361356-40.361356 22.290957 0 40.361356 18.070398 40.361356 40.361356C161.445423 704.213821 143.375024 722.284219 121.084067 722.284219zM121.084067 668.469509c-7.430319 0-13.453785 6.023466-13.453785 13.453785 0 7.430319 6.023466 13.453785 13.453785 13.453785 7.430319 0 13.453785-6.023466 13.453785-13.453785C134.537852 674.492975 128.514386 668.469509 121.084067 668.469509zM228.714349 722.284219c-22.290957 0-40.361356-18.070398-40.361356-40.361356 0-22.290957 18.070398-40.361356 40.361356-40.361356 22.290957 0 40.361356 18.070398 40.361356 40.361356C269.075274 704.213821 251.004875 722.284219 228.714349 722.284219zM228.714349 668.469509c-7.430319 0-13.453785 6.023466-13.453785 13.453785 0 7.430319 6.023466 13.453785 13.453785 13.453785 7.430319 0 13.453785-6.023466 13.453785-13.453785C242.167703 674.492544 236.144237 668.469509 228.714349 668.469509zM336.3442 722.284219c-22.290957 0-40.361356-18.070398-40.361356-40.361356 0-22.290957 18.070398-40.361356 40.361356-40.361356 22.290957 0 40.361356 18.070398 40.361356 40.361356C376.705555 704.213821 358.635157 722.284219 336.3442 722.284219zM336.3442 668.469509c-7.430319 0-13.453785 6.023466-13.453785 13.453785 0 7.430319 6.023466 13.453785 13.453785 13.453785 7.430319 0 13.453785-6.023466 13.453785-13.453785C349.797985 674.492544 343.774519 668.469509 336.3442 668.469509zM413.696577 392.348347l-23.284106-22.437756c-16.934326 16.365213-35.495487 28.926585-55.670568 37.678089-20.181969 8.744616-39.86758 13.124027-59.057692 13.124027-23.707712 0-46.290974-5.787986-67.736442-17.357501-21.451925-11.575972-38.174448-27.167158-50.167138-46.780445-11.999578-19.619314-17.992479-40.852979-17.992479-63.714341 0-35.561352 13.33583-66.538809 40.007059-92.925482 26.670799-26.393561 60.043091-39.583023 100.122474-39.583023 30.481528 0 56.655968 8.532813 78.531499 25.612646 21.869074 17.072945 34.926805 40.284297 39.160279 69.641376L300.661448 255.605937l0 29.211142 131.23898 0c-0.846781-48.261774-15.240334-85.874428-43.18195-112.823326-27.941185-26.955355-64.494825-40.429804-109.648005-40.429804-51.933453 0-93.494595 15.941608-124.676966 47.838599-31.18926 31.890103-46.780445 69.429573-46.780445 112.611523 0 42.897393 15.518432 80.079984 46.568642 111.55337 31.043753 31.466928 71.122705 47.20319 120.23212 47.20319C326.340821 450.77063 372.770414 431.296392 413.696577 392.348347zM467.883234 443.150032l60.53945 0c35.839021 0 59.269064-1.415463 70.275924-4.233474 11.00729-2.824899 21.095046-7.765674 30.269725-14.817158 9.168222-7.058373 16.298917-15.875742 21.379172-26.459857 5.080255-10.583685 7.620167-22.37146 7.620167-35.349549 0-20.889701-5.648937-37.963076-16.933895-51.225291-11.291416-13.269534-25.474027-21.663728-42.546972-25.189901-17.079833-3.5322-43.254703-5.291627-78.531929-5.291627l-21.590544 0 0-141.399489-30.481528 0L467.882803 443.150032zM498.364331 413.515285l0-103.72097 51.225291 0c30.759196-0.569113 51.225722 4.444846 61.386231 15.028531 10.160509 10.584115 15.240334 23.073164 15.240334 37.466717 0 34.145889-24.699999 51.225291-74.086653 51.225291L498.364331 413.514855zM719.775356 443.150032l30.481528 0 0-183.311052c0-18.912013 0.489471-33.166947 1.481328-42.758344 0.98583-9.598285 4.372523-18.83926 10.16094-27.729383 5.781529-8.890123 13.897624-15.948495 24.34269-21.1678 10.438178-5.225762 22.291818-7.831539 35.561783-7.831539 10.722303 0 20.598687 2.182602 29.634747 6.561583 9.029172 4.372523 16.649339 10.510931 22.860931 18.415654 6.204704 7.898266 10.510931 16.577016 12.912224 26.035821 2.394836 9.452778 3.598496 25.613076 3.598496 48.474007l0 183.311052 30.057492 0 0-183.311052c0-30.765654-3.109025-54.334316-9.313728-70.699529-6.211592-16.371671-17.145698-30.057492-32.809637-41.065213-15.66437-11.00686-34.080024-16.51072-55.247393-16.51072-16.934326 0-32.174659 2.751715-45.721862 8.255575-13.547633 5.50343-24.839049 13.189893-33.868221 23.072734-9.03606 9.875523-15.313517 20.883243-18.83926 33.02144-3.53263 12.131739-5.292058 33.444185-5.292058 63.925713L719.775356 443.150032z"  horiz-adv-x="1024" />

    
    <glyph glyph-name="jiedian" unicode="&#59326;" d="M846.530564 159.510156c-27.293623 0-51.40988-10.962679-70.810742-27.073612L604.611769 254.544603c10.852162 22.36231 17.428951 46.915519 17.428951 73.332169 0 36.283368-11.837606 69.823252-31.350009 97.228415L790.845311 625.368256c16.660448-9.755178 34.966373-16.880459 55.685253-16.880459 62.041008 0 112.243387 50.204425 112.243387 112.245434S908.571572 832.978664 846.530564 832.978664c-62.043055 0-112.24441-50.203402-112.24441-112.24441 0-20.716834 7.123234-39.022759 16.880459-55.68423L551.009967 464.784908c-27.624151 19.730367-60.945047 31.459502-97.336886 31.459502-64.233953 0-119.479185-36.501332-147.868769-89.555665L170.650123 451.850317c-5.480828 25.212218-26.856671 44.394093-53.737902 44.394093-31.021527 0-56.122205-25.101701-56.122205-56.123228 0-31.019481 25.100678-56.121182 56.122205-56.121182 14.167674 0 26.77276 5.699816 36.638455 14.358009l134.38671-44.833091c-1.315972-8.439206-2.63092-16.880459-2.63092-25.648147 0-92.952019 75.413574-168.366615 168.366615-168.366615 46.257533 0 88.240717 18.742876 118.712729 48.996924L742.395856 87.165478c-4.822842-12.495592-8.110725-25.759687-8.110725-39.900755 0-61.931514 50.202379-112.243387 112.24441-112.243387 62.041008 0 112.243387 50.311873 112.243387 112.243387C958.772928 109.19726 908.571572 159.510156 846.530564 159.510156z"  horiz-adv-x="1024" />

    
    <glyph glyph-name="dianliubiao" unicode="&#58979;" d="M752 384c0 128.2-100.5 232.9-227 239.6L525 896l-26 0 0-272.4C372.5 616.9 272 512.2 272 384s100.5-232.9 227-239.6L499-128l26 0L525 144.4C651.5 151.1 752 255.8 752 384zM512 169c-118.7 0-215 96.3-215 215s96.3 215 215 215 215-96.3 215-215S630.7 169 512 169zM492.1 539.9l43.8 0L640 253l-42.5 0-29.9 85.9L455.1 338.9 424 253l-39.8 0L492.1 539.9zM556.5 370.6l-44.1 126.8-45.9-126.8L556.5 370.6z"  horiz-adv-x="1024" />

    
    <glyph glyph-name="dianliubiao2" unicode="&#58980;" d="M512 624c-128.2 0-232.9-100-239.6-227L0 397l0-26 272.4 0c6.8-127 111.5-227 239.6-227s232.9 100.5 239.6 227L1024 371l0 26L751.6 397C744.9 523.5 640.2 624 512 624zM727 384c0-118.7-96.3-215-215-215s-215 96.3-215 215 96.3 215 215 215S727 502.7 727 384zM492.1 539.9l43.8 0L640 253l-42.5 0-29.9 85.9L455.1 338.9 424 253l-39.8 0L492.1 539.9zM556.5 370.6l-44.1 126.8-45.9-126.8L556.5 370.6z"  horiz-adv-x="1024" />

    
    <glyph glyph-name="dianrongqi" unicode="&#58981;" d="M1024 397 577 397 577 544 552 544 552 224 577 224 577 371 1024 371ZM447 397 0 397 0 371 447 371 447 224 472 224 472 544 447 544Z"  horiz-adv-x="1024" />

    
    <glyph glyph-name="12117" unicode="&#58957;" d="M275.936 645.632c66.688 55.968 146.016 87.968 227.2 96.192v-41.024c0-24.16 19.104-43.744 42.656-43.744 23.552 0 42.656 19.584 42.656 43.744l0 40.896c51.072-5.312 101.44-19.968 148.384-44.128l73.216 58.4c-77.12 48.064-167.392 76.032-264.256 76.032-282.752 0-512-234.976-512-524.864 0-144.928 57.312-276.16 149.952-371.136l60.352 61.856c-72.448 74.272-113.312 168.608-122.752 265.536h40.448c23.552 0 42.656 19.584 42.656 43.744 0 24.16-19.104 43.744-42.656 43.744l-40.448-0c8.128 83.296 39.584 164.576 94.208 232.96l28.544-29.28c16.672-17.088 43.68-17.088 60.352 0 16.672 17.088 16.672 44.768 0 61.856l-28.512 29.216zM485.44 368.992c-33.344-34.144-33.344-89.536 0-123.712 33.312-34.176 87.36-34.176 120.672 0 14.432 14.784 47.648 55.872 89.76 109.728l361.92 476.992-463.776-369.792c-53.344-43.808-94.080-78.4-108.576-93.216zM926.88 503.232c23.488-48.192 37.728-99.904 42.88-152.384h-39.968c-23.584 0-42.656-19.584-42.656-43.744 0-24.16 19.104-43.744 42.656-43.744h40.064c-9.408-96.928-49.888-191.264-122.336-265.536l60.32-61.824c92.64 94.976 149.952 226.208 149.952 371.136 0 99.296-27.296 191.84-74.144 270.912l-56.768-74.816z"  horiz-adv-x="1058" />

    
    <glyph glyph-name="12112" unicode="&#58996;" d="M708.651 401.707l-184.789 39.68 85.291 397.056-293.803-439.552 148.907-32-93.909-437.291 338.304 472.107z"  horiz-adv-x="1024" />

    
    <glyph glyph-name="kyonghujiaose" unicode="&#59036;" d="M957.180797 730.967646 611.029748 730.967646l0 83.409522c0 16.681904-16.680881 33.364832-33.363809 33.364832L440.039717 847.741999c-16.681904 0-29.193844-16.682928-29.193844-33.364832l0-83.409522L64.694824 730.967646c-29.192821 0-54.215677-20.851869-54.215677-50.045713l0-700.642027c0-25.02388 25.022856-50.046736 54.215677-50.046736l896.655938 0c29.192821 0 54.215677 20.851869 54.215677 50.046736L1015.566439 680.92091C1011.397498 710.114754 986.374641 730.967646 957.180797 730.967646L957.180797 730.967646zM954.902922 674.472047 954.902922 558.084503 611.029748 558.084503 611.029748 674.472047l333.640133 0L954.902922 674.472047zM461.255882 799.263988l103.533821 0 0-241.010641L461.255882 558.253348 461.255882 799.263988 461.255882 799.263988zM410.845873 674.472047 410.845873 558.084503 66.973722 558.084503 66.973722 674.472047 410.845873 674.472047 410.845873 674.472047zM66.973722-13.272255 66.973722 501.589927l373.065995 0L577.664916 501.589927l373.065995 0 0-514.863205L77.206763-13.273278 66.973722-13.273278zM844.190622 420.45828 627.32689 420.45828c-16.683951 0-29.194867-12.51194-29.194867-29.192821 0-16.680881 12.51194-25.022856 29.194867-25.022856l216.864756 0c16.681904 0 25.022856 12.51194 25.022856 25.022856C869.213479 407.94634 856.702562 420.45828 844.190622 420.45828L844.190622 420.45828zM623.154879 232.786345l162.648055 0c16.682928 0 29.193844 12.512963 29.193844 29.194867 0 16.680881-12.51194 25.02081-29.193844 25.02081L623.154879 287.002023c-16.682928 0-29.193844-12.51194-29.193844-25.02081C598.130999 245.298285 610.642939 232.786345 623.154879 232.786345L623.154879 232.786345zM844.190622 153.546788 627.32689 153.546788c-16.683951 0-29.194867-12.51194-29.194867-29.192821 0-16.682928 12.51194-25.022856 29.194867-25.022856l216.864756 0c16.681904 0 25.022856 12.51194 25.022856 25.022856C869.213479 141.035872 856.702562 153.546788 844.190622 153.546788L844.190622 153.546788zM385.82404 217.99653c0 0 0 8.341975-4.169964 12.51194 4.169964 8.339929 20.851869 25.02388 25.022856 50.046736 4.168941 4.168941 12.510917 8.339929 12.510917 16.680881 8.339929 8.339929 8.339929 25.02388 0 33.363809l0 0c0 12.51194 4.169964 54.217724-16.681904 79.239557-12.51194 16.681904-33.363809 20.851869-58.387688 20.851869-25.022856 0-45.875748-8.339929-58.386665-20.851869-25.02388-25.021833-20.852892-62.556629-16.681904-75.068569l0 0c-8.340952-12.51194-8.340952-29.194867-4.170988-41.706807 4.170988-8.339929 8.340952-12.509893 12.51194-16.680881 4.172011-25.02388 20.851869-41.704761 25.02388-50.04469 0-4.170988 0-8.341975 0-8.341975-25.02388-4.168941-125.115306-58.385642-125.115306-108.432378l0-12.51194 333.639109 0 0 8.339929C510.937299 159.610889 410.845873 213.826566 385.82404 217.99653L385.82404 217.99653z"  horiz-adv-x="1024" />

    
    <glyph glyph-name="cpu" unicode="&#58954;" d="M426.67008 810.66496H341.33504V896h85.33504v-85.33504z m-341.33504-512H0v-85.33504h85.33504v85.33504z m0 128H0v-85.33504h85.33504V426.66496z m0 128H0v-85.33504h85.33504V554.66496z m0 213.33504c0 23.51616 19.1232 42.66496 42.66496 42.66496h170.67008V896H128C57.2928 896 0 838.68672 0 768v-170.67008h85.33504V768z m469.32992 128H469.33504v-85.33504h85.33504V896z m127.99488 0h-85.32992v-85.33504h85.32992V896z m-142.07488-495.35488c0 13.89568-9.12896 16.91648-23.00416 16.91648h-19.82976v-33.81248h19.82976c13.952 0 23.00416 2.95424 23.00416 16.896zM170.67008 725.32992h682.67008v-682.67008H170.67008V725.32992z m428.45696-366.75072c0-40.3712 23.37792-59.91424 63.45728-59.91424 39.04512 0 63.58528 19.50208 63.58528 59.91424V449.41824h-38.7072v-90.83392c0-20.36736-6.88128-26.33216-24.87808-26.33216-18.87232 0-24.87296 8.99584-24.87296 26.33216V449.41824h-38.5792v-90.83904z m-140.0832-56.78592h38.7072v50.04288h28.25216c33.61792 0 52.2496 20.23936 52.2496 48.81408 0 29.02016-19.1232 48.768-52.2496 48.768H459.04384v-147.62496z m-159.50336 73.21088c0-43.0848 27.54048-76.3392 72.62208-76.3392 35.16928 0 61.75232 20.37248 65.75104 64.91648h-37.5808c-6.29248-46.78656-62.08-41.07776-62.08 11.42272 0 23.99744 9.66656 43.93472 33.91488 43.93472 13.08672 0 24.58624-7.91552 27.00288-24.43776h37.5808c-3.82976 39.33184-31.12448 58.22976-64.58368 58.22976-44.79488-0.00512-72.6272-33.58208-72.6272-77.72672z m639.11936-33.67424H1024V426.66496h-85.34016v-85.33504zM85.33504 0v170.65984H0V0c0-70.66624 57.2928-128 128-128h170.67008v85.32992H128c-23.54176 0-42.66496 19.16928-42.66496 42.67008z m853.3248 0c0-23.5008-19.11296-42.67008-42.65984-42.67008h-170.67008V-128H896c70.71232 0 128 57.33376 128 128v170.65984h-85.34016V0z m0 213.32992H1024v85.33504h-85.34016v-85.33504z m0 256H1024V554.66496h-85.34016v-85.33504zM896 896h-170.67008v-85.33504H896c23.54688 0 42.65984-19.14368 42.65984-42.66496v-170.67008H1024V768c0 70.68672-57.28768 128-128 128zM341.33504-128h85.33504v85.32992H341.33504V-128z m255.99488 0h85.32992v85.32992h-85.32992V-128z m-127.99488 0h85.33504v85.32992H469.33504V-128z"  horiz-adv-x="1024" />

    
    <glyph glyph-name="lock" unicode="&#58917;" d="M512 298.666667a42.538667 42.538667 0 1 1-21.333333-79.424V106.666667a21.333333 21.333333 0 1 1 42.666666 0v112.576c12.693333 7.381333 21.333333 20.992 21.333334 36.757333a42.666667 42.666667 0 0 1-42.666667 42.666667zM768 512v128c0 141.162667-114.837333 256-256 256S256 781.162667 256 640v-128H128v-640h768V512h-128z m-469.333333 128c0 117.632 95.701333 213.333333 213.333333 213.333333s213.333333-95.701333 213.333333-213.333333v-128H298.666667v128z m554.666666-725.333333H170.666667V469.333333h682.666666v-554.666666z"  horiz-adv-x="1024" />

    
    <glyph glyph-name="lockunlock" unicode="&#58929;" d="M490.666667 219.242667V106.666667a21.333333 21.333333 0 0 1 42.666666 0v112.576c12.693333 7.381333 21.333333 20.992 21.333334 36.757333a42.666667 42.666667 0 1 1-85.333334 0c0-15.744 8.64-29.354667 21.333334-36.757333zM768 512v128c0 141.162667-114.837333 256-256 256S256 781.162667 256 640h42.666667c0 117.632 95.701333 213.333333 213.333333 213.333333s213.333333-95.701333 213.333333-213.333333v-128H128v-640h768V512h-128z m85.333333-597.333333H170.666667V469.333333h682.666666v-554.666666z"  horiz-adv-x="1024" />

    
    <glyph glyph-name="Group" unicode="&#58939;" d="M512 896c-282.77 0-512-229.23-512-512s229.23-512 512-512c282.77 0 512 229.23 512 512 0 282.77-229.23 512-512 512zM512 42.667c-188.513 0-341.333 152.82-341.333 341.333s152.82 341.333 341.333 341.333c188.513 0 341.333-152.82 341.333-341.333 0-188.513-152.82-341.333-341.333-341.333zM358.4 384c0-0 0-0 0-0 0-84.831 68.769-153.6 153.6-153.6 84.831 0 153.6 68.769 153.6 153.6 0 0 0 0 0 0 0 84.831-68.769 153.6-153.6 153.6-84.831 0-153.6-68.769-153.6-153.6z"  horiz-adv-x="1024" />

    
    <glyph glyph-name="neicun" unicode="&#58888;" d="M512-128c-69.12 0-136.1408 13.5168-199.3216 40.2432-60.9792 25.8048-115.712 62.72-162.7648 109.7216-47.0016 47.0016-83.9168 101.7856-109.7216 162.7648C13.5168 247.8592 0 314.88 0 384s13.5168 136.1408 40.2432 199.3216c25.8048 60.9792 62.72 115.712 109.7216 162.7648S251.7504 829.952 312.6784 855.7568C375.8592 882.4832 442.88 896 512 896s136.1408-13.5168 199.3216-40.2432c60.9792-25.8048 115.712-62.72 162.7648-109.7216 47.0016-47.0016 83.9168-101.7856 109.7216-162.7648C1010.4832 520.1408 1024 453.12 1024 384s-13.5168-136.1408-40.2432-199.3216c-25.8048-60.9792-62.72-115.712-109.7216-162.7648-47.0016-47.0016-101.7856-83.9168-162.7648-109.7216-63.1296-26.6752-130.1504-40.192-199.2704-40.192z m0 990.976C247.9104 862.976 33.024 648.0896 33.024 384s214.8864-478.976 478.976-478.976 478.976 214.8864 478.976 478.976S776.0896 862.976 512 862.976zM410.88 668.16c-26.2656-0.0512-47.7184-22.784-47.6672-50.5856 0 0-1.9456-87.3472 0-138.752-1.8432-31.7952-99.84-63.0272-99.84-94.8224 0.1024-72.704 0-234.24 0-234.24 0-27.8016 21.504-50.4832 47.7696-50.4832l134.144 0.2048 135.1168 0.2048 132.5056 0.1536c26.2656 0 47.7184 22.784 47.6672 50.5856l-0.512 467.7632c-0.0512 27.8016-21.5552 50.4832-47.7696 50.4832l-301.4144-0.512z m303.4112-530.9952l-130.304-0.1536-131.328-0.2048-145.9712-0.2048c-7.168 0.4096-14.9504 10.24-14.9504 21.4016 0 0 0.1024 131.328 0 200.5504-0.0512 30.464 101.7344 70.5536 101.7344 101.0176-0.0512 56.0128 0 157.7984 0 157.7984 0 5.5808 5.7856 15.872 14.8992 15.9232H713.728c9.0624-0.0512 14.9504-9.0112 14.9504-21.4016l0.512-453.2224c0.0512-12.3904-6.144-21.4016-14.8992-21.504z m-37.3248 273.8688V589.8752h-41.3696v-179.2l41.3696 0.3584z m-134.5024 178.8416v-179.2h41.3696v179.2h-41.3696z m-93.2352 0V411.136l41.3696-0.512V589.824h-41.3696v0.0512z"  horiz-adv-x="1024" />

    
    <glyph glyph-name="neicun1" unicode="&#59201;" d="M947.2 332.8h-76.8V435.2h76.8c14.0288 0 25.6 11.5712 25.6 25.6 0 14.1312-11.5712 25.6-25.6 25.6h-76.8V691.2c0 28.16-23.04 51.2-51.2 51.2H614.4V819.2c0 14.1312-11.5712 25.6-25.6 25.6s-25.6-11.4688-25.6-25.6v-76.8H460.8V819.2c0 14.1312-11.5712 25.6-25.6 25.6s-25.6-11.4688-25.6-25.6v-76.8H204.8c-28.16 0-51.2-23.04-51.2-51.2v-204.8H76.8c-14.0288 0-25.6-11.4688-25.6-25.6 0-14.0288 11.5712-25.6 25.6-25.6h76.8v-102.4H76.8c-14.0288 0-25.6-11.4688-25.6-25.6 0-14.0288 11.5712-25.6 25.6-25.6h76.8v-204.8c0-28.16 23.04-51.2 51.2-51.2h204.8v-76.8c0-14.0288 11.5712-25.6 25.6-25.6s25.6 11.5712 25.6 25.6v76.8h102.4v-76.8c0-14.0288 11.5712-25.6 25.6-25.6s25.6 11.5712 25.6 25.6v76.8h204.8c28.16 0 51.2 23.04 51.2 51.2V281.6h76.8c14.0288 0 25.6 11.5712 25.6 25.6 0 14.1312-11.5712 25.6-25.6 25.6zM819.2 76.8H204.8V691.2h614.4v-614.4zM614.4 537.6H409.6c-28.16 0-51.2-23.04-51.2-51.2v-204.8c0-28.16 23.04-51.2 51.2-51.2h204.8c28.16 0 51.2 23.04 51.2 51.2V486.4c0 28.16-23.04 51.2-51.2 51.2z m0-256H409.6V486.4h204.8v-204.8z"  horiz-adv-x="1024" />

    
    <glyph glyph-name="shebeiguanli2" unicode="&#58921;" d="M78.769225-49.254327L945.254327-49.230697 945.230697 817.254406 78.745594 817.230775 78.769225-49.254327zM39.360982 896h945.277958A39.321597 39.321597 0 0 0 1023.999921 856.639018v-945.277958a39.321597 39.321597 0 0 0-39.360981-39.360981H39.360982A39.321597 39.321597 0 0 0 0-88.63894V856.639018A39.321597 39.321597 0 0 0 39.360982 896z m43.323073-630.153798h858.631811c2.166154 0 3.91483-1.795938 3.914831-4.01723v-70.734764c0-2.221292-1.803815-4.01723-3.914831-4.01723H82.684055a3.962092 3.962092 0 0 0-3.91483 4.01723v70.734764c0 2.221292 1.803815 4.01723 3.91483 4.01723z m0 315.076899h858.631811c2.166154 0 3.91483-1.795938 3.914831-4.01723v-70.734764c0-2.221292-1.803815-4.01723-3.914831-4.017231H82.684055a3.962092 3.962092 0 0 0-3.91483 4.017231v70.734764c0 2.221292 1.803815 4.01723 3.91483 4.01723zM787.692247 92.553908c0 8.703999 6.98683 15.753845 15.753845 15.753845h47.261535c8.703999 0 15.753845-6.98683 15.753845-15.753845v-47.261535c0-8.703999-6.98683-15.753845-15.753845-15.753845h-47.261535c-8.703999 0-15.753845 6.98683-15.753845 15.753845v47.261535z m0 315.076899c0 8.703999 6.98683 15.753845 15.753845 15.753845h47.261535c8.703999 0 15.753845-6.98683 15.753845-15.753845v-47.261535c0-8.703999-6.98683-15.753845-15.753845-15.753845h-47.261535c-8.703999 0-15.753845 6.98683-15.753845 15.753845v47.261535z m0 315.076899c0 8.703999 6.98683 15.753845 15.753845 15.753845h47.261535c8.703999 0 15.753845-6.98683 15.753845-15.753845v-47.261535c0-8.703999-6.98683-15.753845-15.753845-15.753845h-47.261535c-8.703999 0-15.753845 6.98683-15.753845 15.753845v47.261535z"  horiz-adv-x="1024" />

    
    <glyph glyph-name="jinggao" unicode="&#58907;" d="M512.0164794921875 251.876495361328c18.583099365234375 0 33.703033447265625 15.119110107421877 33.703033447265625 33.704681396484375V535.1416625976562c0 18.583099365234375-15.119110107421877 33.703033447265625-33.70385742187501 33.703033447265625-18.58145141601562 0-33.7005615234375-15.119110107421877-33.7005615234375-33.703033447265625v-249.56048583984378c0.0016479492187499998-18.5855712890625 15.119110107421877-33.704681396484375 33.7005615234375-33.704681396484375zM512.0164794921875 208.256103515625c-12.51617431640625 0-24.774444580078125-5.076507568359375-33.63629150390625-13.930938720703125-8.852783203125-8.8560791015625-13.930114746093748-21.115997314453125-13.930114746093748-33.638763427734375 0-12.5211181640625 5.077331542968749-24.781036376953125 13.930938720703125-33.6346435546875 8.85443115234375-8.852783203125 21.114349365234375-13.930114746093748 33.6346435546875-13.930114746093748 12.5211181640625 0 24.780212402343754 5.077331542968749 33.6346435546875 13.930938720703125 8.8560791015625 8.856903076171875 13.934234619140627 21.11517333984375 13.934234619140627 33.6346435546875 0 12.519470214843752-5.078155517578126 24.781036376953125-13.936706542968752 33.64041137695312-8.85772705078125 8.851959228515625-21.11517333984375 13.928466796875-33.632171630859375 13.928466796875zM830.261016845703 9.0750732421875H193.73733520507812c-24.309722900390625 0-46.0799560546875 13.743896484375-58.23522949218751 36.7657470703125s-12.1552734375 50.510467529296875 0 73.53231811523438L453.7647705078125 722.1591796875c12.154449462890625 23.0218505859375 33.92550659179688 36.7657470703125 58.23522949218751 36.7657470703125 24.310546875 0 46.08160400390625-13.743896484375 58.23687744140626-36.7657470703125l318.26019287109375-602.7852172851562a78.69781494140625 78.69781494140625 0 0 0 0-73.53231811523438c-12.1552734375-23.0218505859375-33.92550659179688-36.7657470703125-58.23605346679688-36.7657470703125zM511.9991760253907 702.251953125c-2.6754455566406246 0-9.334808349609375-0.8206787109375-13.352508544921875-8.429260253906252L180.38565063476562 91.0374755859375c-4.016876220703125-7.608581542968748-1.3381347656250002-14.325622558593748 0-16.858520507812504 1.338958740234375-2.535369873046875 5.318756103515625-8.430908203125 13.352508544921875-8.430908203125h636.523681640625c8.034576416015625 0 12.014373779296875 5.89471435546875 13.352508544921875 8.430084228515625 1.338958740234375 2.5345458984375 4.0177001953125 9.250762939453125 0 16.85934448242187L525.3525085449219 693.8226928710938c-4.0177001953125 7.607757568359376-10.676239013671877 8.429260253906252-13.35333251953125 8.429260253906252z"  horiz-adv-x="1024" />

    
    <glyph glyph-name="shebei" unicode="&#58881;" d="M512 164.571A219.429 219.429 0 1 0 731.429 384 219.429 219.429 0 0 0 512 164.571z m0 402.286A182.857 182.857 0 1 1 694.857 384 182.857 182.857 0 0 1 512 566.857zM512-73.143A457.143 457.143 0 1 0 969.143 384 457.509 457.509 0 0 0 512-73.143z m0 877.714A420.571 420.571 0 1 1 932.571 384 420.937 420.937 0 0 1 512 804.571zM512 654.629a51.931 51.931 0 1 0 51.931 51.931A51.931 51.931 0 0 0 512 654.629z m0 67.657a15.36 15.36 0 1 1 15.36-15.36 15.36 15.36 0 0 1-15.36 15.36zM478.354 61.074a33.646 33.646 0 1 1 67.292 0 33.646 33.646 0 1 1-67.292 0z"  horiz-adv-x="1024" />

    
    <glyph glyph-name="yonghujiaose" unicode="&#58886;" d="M118.727111-96.028444c-65.422222 0-118.556444 51.370667-118.556444 114.574222V781.425778C0.170667 844.572444 53.248 896 118.556444 896h629.589334c65.251556 0 118.385778-51.427556 118.385778-114.688v-44.145778a24.064 24.064 0 0 0-48.184889 0v44.145778c0 36.693333-31.516444 66.56-70.200889 66.56H118.556444c-38.684444 0-70.257778-29.809778-70.257777-66.446222v-762.88c0-36.636444 31.573333-66.389333 70.428444-66.389334H295.822222a24.007111 24.007111 0 0 0 23.324445-24.120888 24.007111 24.007111 0 0 0-23.324445-24.064H118.727111z m881.322667 46.250666a23.665778 23.665778 0 0 0-23.665778 23.608889 286.606222 286.606222 0 0 1-286.321778 286.208 286.606222 286.606222 0 0 1-286.264889-286.208 23.665778 23.665778 0 0 0-47.217777 0 333.255111 333.255111 0 0 0 209.464888 309.646222l13.141334 5.233778-11.889778 7.736889a224.483556 224.483556 0 0 0-102.286222 188.643556 225.28 225.28 0 0 0 225.052444 224.995555 225.28 225.28 0 0 0 225.109334-224.995555 224.426667 224.426667 0 0 0-102.286223-188.643556l-11.889777-7.736889 13.198222-5.233778a333.255111 333.255111 0 0 0 209.464889-309.646222 23.608889 23.608889 0 0 0-23.608889-23.608889zM690.062222 662.869333a178.005333 178.005333 0 0 1-177.777778-177.777777 178.005333 178.005333 0 0 1 177.777778-177.777778 178.062222 178.062222 0 0 1 177.834667 177.777778 178.062222 178.062222 0 0 1-177.834667 177.777777zM151.324444 376.376889a23.893333 23.893333 0 0 0-24.064 23.267555v0.796445c0 13.312 10.808889 24.120889 24.177778 24.120889h200.362667a24.120889 24.120889 0 0 0 0-48.184889H151.324444z m0 235.975111a24.120889 24.120889 0 0 0 0 48.184889h278.016a23.893333 23.893333 0 0 0 24.064-24.120889c0-13.255111-10.808889-24.064-24.064-24.064H151.324444z"  horiz-adv-x="1024" />

    
    <glyph glyph-name="shebeiguanli3" unicode="&#59450;" d="M815.941818 596.870465c-3.669333-7.718788-8.91604-13.420606-17.318788-16.537859-60.373333-24.256646-111.300525-62.504081-153.826262-111.054869-12.603475-14.447192-27.296323-26.842505-40.945778-40.263111-2.623354-2.584566-4.733414-4.143838-7.889455-6.729697-2.623354 2.053172-4.71402 4.145131-6.82408 6.198303-11.026101 10.872242-22.052202 22.202182-33.590303 32.544324-6.824081 6.19701-5.246707 9.808162 0.513292 15.511272 26.784323 25.283232 51.991273 52.163232 79.288889 76.951273 21.519515 19.617616 39.899798 40.794505 49.861819 68.207192 15.758222 42.847677 44.633212 71.246869 88.203636 86.759434 13.649455 4.63903 26.785616 18.077737 39.389091 17.033051 13.134869-1.026586 20.473535-19.104323 31.992242-27.885899 14.219636-10.322747 15.777616-20.150303 5.779394-35.149576-13.076687-20.646788-23.608889-43.342869-34.633697-65.583838zM669.985616 286.938505c6.843475-6.729697 12.603475-7.224889 22.050909-5.132929 52.504566 12.39402 98.185051-0.532687 134.437495-39.806707 34.63499-37.677253 44.595717-81.627798 27.296323-130.671192-3.724929-10.873535-6.310788-14.979879-16.271515-4.143839-25.226343 26.347313-51.47798 51.66804-77.729616 76.456081-13.649455 13.421899-30.453657 18.592323-48.817131 11.368727-16.272808-6.19701-26.252929-18.097131-28.876283-35.62408-2.110061-16.576646 5.248-29.959758 16.804202-41.364687 27.297616-27.373899 55.109818-54.749091 83.984808-83.149576-80.846869-41.325899-179.545212 12.889212-190.571313 102.765899-2.090667 17.564444-1.578667 35.130182 4.200727 52.200727 2.623354 7.717495 0.532687 12.39402-4.733414 17.564445-87.139556 85.200162-174.298505 170.971798-261.438061 256.743434-5.779394 5.664323-10.493414 6.690909-18.896161 4.637737-74.555475-20.681697-152.26699 25.320727-167.473131 100.218829-5.779394 27.375192-4.20202 55.24299 9.447434 81.056323 5.76 1.065374 7.338667-3.573657 9.960727-6.159515 25.739636-24.78804 50.927192-50.641455 76.666828-75.429495 21.519515-21.176889 47.769859-22.203475 67.198708-3.612445 18.894869 18.059636 17.850182 44.939636-3.154748 66.116526-27.82901 27.905293-56.172606 55.259798-86.094869 84.706262 41.993051 17.051152 81.379556 17.565737 120.749253-2.072565 55.641212-28.400485 83.984808-92.975838 66.667313-152.361374-2.622061-9.314263-0.512-13.953293 5.779394-19.618909a60639.85002 60639.85002 0 0 0 258.812121-254.687677z m-295.559757 57.865051c5.246707 5.132929 7.870061 6.19701 13.649454 0.493899a5906.56 5906.56 0 0 1 82.425535-81.056324c5.246707-5.170424 5.758707-7.75499 0-13.458101-71.933414-70.260364-142.800162-141.013333-215.245575-210.739717-35.187071-33.572202-87.690343-24.295434-108.163879 17.031758-4.71402 9.846949-5.248 12.395313-5.248 32.050424-2.090667 16.500364 5.248 31.480242 18.382869 44.406949 71.398141 70.789172 142.798869 140.516848 214.199596 211.271112z"  horiz-adv-x="1024" />

    
    <glyph glyph-name="jiedian1" unicode="&#58880;" d="M518.5970051505699 427.1190068078959m-192.82219933590963 0a192.82219744247166 192.82219744247166 0 1 1 385.64439677838124 0 192.82219744247166 192.82219744247166 0 1 1-385.64439677838124 0ZM494.6508817881752 960.8860932546418h57.545331741102956v-1090.484042819181h-57.545331741102956z"  horiz-adv-x="1024" />

    
    <glyph glyph-name="huanfeng" unicode="&#59827;" d="M1180.289855-128H644.173913a92.753623 92.753623 0 0 0-92.753623 92.753623v371.014493l-10.202899-10.202899a46.376812 46.376812 0 0 0-65.391304 65.391305L953.507246 869.565217a95.072464 95.072464 0 0 0 131.246377 0l478.144928-477.681159a46.376812 46.376812 0 0 0-65.391305-65.391304l-13.449275 14.376811v-375.652174a92.753623 92.753623 0 0 0-92.753623-92.753623h-211.014493z m46.376812 92.753623h164.637681V433.623188l-371.014493 371.014493-376.115942-375.652174v-463.768116h163.710145v274.550725a92.753623 92.753623 0 0 0 92.753623 92.753623h231.884058a92.753623 92.753623 0 0 0 92.753623-92.753623z m-324.637681 0h231.884057v275.014493h-231.884057zM236.521739 31.072464a46.376812 46.376812 0 0 0-36.173913 75.130435l32.927536 41.73913H46.376812a46.376812 46.376812 0 1 0 0 92.753623h170.202898l-21.797101 21.333334a46.376812 46.376812 0 0 0 64.927536 65.855072l102.028985-99.710145a46.376812 46.376812 0 0 0 8.347827-11.130435 46.376812 46.376812 0 0 0 2.31884-39.884058 46.376812 46.376812 0 0 0-6.956522-11.594203l-92.753623-116.405797a46.376812 46.376812 0 0 0-36.173913-18.086956z m-92.753623 345.507246a46.376812 46.376812 0 0 0-36.173913 17.623189l-92.753623 116.405797a46.376812 46.376812 0 0 0-10.202899 32 46.376812 46.376812 0 0 0 13.913044 30.608695L120.115942 673.391304a46.376812 46.376812 0 0 0 65.391304-65.855072l-21.333333-21.333333h166.956522a46.376812 46.376812 0 1 0 0-92.753624h-185.507247l33.391305-41.73913a46.376812 46.376812 0 0 0-36.173913-75.130435z"  horiz-adv-x="1576" />

    
    <glyph glyph-name="jiedian2" unicode="&#59136;" d="M283.2384 220.9792V727.1424h-45.75232v-506.15808c-39.46496-10.15296-68.62336-45.98272-68.62336-88.62208 0-50.52928 40.97024-91.49952 91.50464-91.49952 42.62912 0 78.45888 29.16352 88.62208 68.62336h506.15296v45.75744H348.9792a91.65824 91.65824 0 0 1-65.7408 65.73568z m0 0M351.872 223.86688h22.87104v45.75744h-45.75232v-22.88128h22.87616v-22.87616z m0 0"  horiz-adv-x="1024" />

    
    <glyph glyph-name="shebeiguanli4" unicode="&#59257;" d="M847.57035639 816.27435829H175.86958193c-53.39255747 0-96.14394023-43.31144589-96.14394022-96.14394022V240.15746386c0-53.39255747 43.31144589-96.14394023 96.14394022-96.14394172h672.26083614c52.83249581 0 95.58387855 42.75138274 95.58387855 96.14394172V720.13041807c0 53.39255747-43.31144589 96.14394023-96.14394023 96.14394022zM886.58799417 212.15437429999997H136.66525597V748.13350762h750.66948806s0-535.97913332-0.74674986-535.97913332zM272.01352214 47.86958192999998h480.15964243c26.69627801 0 47.79193927-21.65572295 47.79193928-47.79193927v-19.78884972H224.22158288v19.78884972c0 26.69627801 21.09566127 47.79193927 47.79193926 47.79193927zM635.30693802 492.9320183l-192.84794362-118.91978651c1.68018501-33.97708271-16.05510474-68.32753887-47.23187759-87.182952-36.59070434-22.77584628-82.70245712-18.8554131-114.9993548 7.28080323l80.64889861 49.47212431c15.49504307 9.52104992 20.53559961 30.05664951 11.20123494 45.55169257-9.52104992 15.49504307-30.05664951 20.53559961-45.55169257 11.20123495L245.31724417 350.30294886c-8.40092658 40.51113606 7.8408649 83.26252027 45.55169257 105.66499163 31.17677285 18.8554131 69.44766222 18.29535145 99.50431026 2.80030837L581.91438053 576.19453856c-1.68018501 33.97708271 16.05510474 68.32753887 47.23187759 87.182952 37.71082768 23.33590797 83.82258194 18.29535145 114.99935482-7.28080324l-80.64889864-49.47212577c-15.49504307-9.52104992-20.53559961-30.05664951-11.20123641-45.55169258 9.52104992-15.49504307 30.05664951-20.53559961 45.5516926-11.20123493l80.64889862 50.59224765c8.40092658-40.51113606-7.8408649-83.26252027-45.55169259-105.66499018-29.86996277-19.04210131-68.14085068-18.48203964-97.6374385-1.86687321z"  horiz-adv-x="1024" />

    
    <glyph glyph-name="wendu" unicode="&#58912;" d="M982.305453 581.108335c-25.739233 60.810819-62.466559 115.299721-109.278847 162.262531-46.962811 46.962811-101.602234 83.539615-162.262531 109.278847-63.068646 26.642364-129.749816 40.189328-198.688814 40.189329s-135.770689-13.546965-198.688814-40.189329c-60.660297-25.739233-115.299721-62.466559-162.112009-109.278847-46.962811-46.962811-83.690137-101.602234-109.42937-162.262531C15.052183 518.039688 1.505218 451.358518 1.505218 382.419521s13.546965-135.770689 40.189329-198.688814c25.739233-60.810819 62.466559-115.299721 109.429369-162.262531 46.962811-46.962811 101.451712-83.690137 162.262531-109.278848 62.918124-26.642364 129.749816-40.189328 198.688814-40.189328s135.770689 13.546965 198.688814 40.189328c60.810819 25.739233 115.299721 62.466559 162.262531 109.278848 46.962811 46.962811 83.690137 101.451712 109.278847 162.262531 26.642364 63.068646 40.189328 129.749816 40.189329 198.688814s-13.546965 135.620168-40.189329 198.688814zM825.160664 69.183595c-83.690137-83.539615-194.925768-129.749816-313.085403-129.749816-118.310157 0-229.545789 46.05968-313.085404 129.749816C115.299721 152.873732 69.240041 264.109364 69.240041 382.268999c0 118.310157 46.05968 229.395267 129.749816 313.085403 83.690137 83.690137 194.925768 129.749816 313.085404 129.749817 118.310157 0 229.395267-46.05968 313.085403-129.749817 83.539615-83.690137 129.749816-194.925768 129.749817-313.085403-0.301044-118.159635-46.210201-229.395267-129.749817-313.085404zM723.407908 234.757607c-6.924004 47.865941-28.599147 88.506835-63.068646 122.223725-2.257827 2.257827-3.160958 4.365133-3.160958 7.526091 0.150522 48.919594 0.150522 97.688667 0.150522 146.608261 0 46.812289-0.150522 93.323534 0 140.135823 0.150522 23.180362-6.773482 43.952374-20.169926 62.61708-15.65427 21.675143-36.426283 37.178892-61.262384 46.511245-54.187858 20.772012-107.322064 17.912098-158.348963-11.289137-16.858445-9.633397-30.706453-22.879318-41.393503-39.286197-12.192268-18.815229-17.460532-39.135675-17.310011-61.412906 0.301044-94.377187 0.150522-188.754373 0.301044-283.13156 0-3.763046-1.204175-6.321917-3.763046-9.031309-54.940467-56.445686-75.561958-124.029987-59.606644-200.79612 23.330883-111.837719 131.405556-185.894458 244.44745-168.885491 42.748199 6.472439 80.6797 23.481405 112.439806 52.68264 57.64986 52.532118 81.281787 118.159635 70.745259 195.527855z m-58.251947-58.703513c-7.526091-44.855505-30.555931-80.077613-67.584301-106.117889-20.320447-14.149052-42.898721-22.728796-67.43378-26.040277-45.909158-6.020873-87.001617 5.719829-122.825812 34.770543-29.351757 23.631927-48.166985 54.488902-55.090989 91.517271-10.988093 60.509775 6.924004 111.687197 52.983684 152.930178 3.913568 3.31148 9.332353 5.870351 11.289137 10.235485 1.956784 4.365133 0.602087 10.386006 0.602087 15.65427 0 99.043363 0.301044 198.086726-0.301044 296.979568-0.150522 23.330883 10.084963 39.587241 28.599148 51.628987 22.879318 14.751139 48.468029 19.266794 75.411436 16.707923 20.320447-1.806262 39.135675-8.128179 55.392033-20.772012 15.052183-11.590181 23.180362-26.190798 23.02984-45.758636-0.451565-51.0269-0.301044-102.0538-0.301044-153.0807 0-51.930031 0.150522-104.161105-0.150522-156.091136-0.150522-3.913568 1.053653-6.773482 4.214611-9.332354 22.578274-17.460532 40.189328-38.985154 51.327944-65.476995 12.34279-28.147582 15.955314-57.348817 10.837572-87.754226zM686.229017 622.652359c5.870351-0.301044 11.740703 0 17.611054 0s11.740703-0.301044 17.460532 0c7.977657 0.301044 14.149052 6.020873 14.299573 13.848008 0.301044 7.676613-5.719829 14.299574-13.99853 14.600618-12.041746 0.301044-23.932971 0.301044-35.824195-0.150522-8.429222-0.301044-13.99853-6.62296-13.697486-14.600617 0.301044-7.676613 6.020873-13.396443 14.149052-13.697487zM719.795384 548.746141c0.301044 0 0.602087 0 0.75261 0.150522 6.924004 0.301044 12.192268 3.913568 14.149051 9.633397 3.160958 9.482875-3.160958 18.664707-13.697486 18.965751-11.439659 0.301044-22.879318 0.150522-34.168455 0.150522-1.806262-0.150522-3.913568-0.451565-5.569308-1.053653-6.472439-2.257827-10.084963-8.429222-9.332353-15.503749 0.752609-6.773482 6.472439-11.891224 14.149052-12.041746 5.870351-0.301044 11.740703-0.150522 17.611054-0.150522v-0.150522h16.105835zM721.300603 503.589593c-5.719829 0.150522-11.590181 0-17.159489 0-5.870351 0-11.740703 0.150522-17.611054 0-8.278701-0.301044-14.299574-6.171395-14.299573-14.149052-0.150522-8.128179 5.870351-14.299574 14.450095-14.450096 11.590181-0.150522 23.02984-0.150522 34.770543 0 8.128179 0.150522 14.299574 6.321917 14.450095 14.149052-0.150522 8.128179-6.472439 14.299574-14.600617 14.450096zM721.300603 429.683375c-11.740703 0.301044-23.330883 0.301044-35.071586 0-8.278701-0.301044-14.149052-6.472439-14.149052-14.450096s5.870351-13.848008 14.299573-14.149051c5.870351-0.150522 11.740703 0 17.611054 0 5.719829 0 11.439659-0.150522 17.159489 0 8.429222 0.301044 14.450096 6.020873 14.600617 13.99853 0.150522 7.977657-6.171395 14.450096-14.450095 14.600617zM557.231809 300.987212c-3.31148 1.65574-4.365133 3.31148-4.365133 7.074525 0.150522 44.102896 0.150522 88.205792 0.150522 132.45921 0 43.500808-0.150522 136.67382 0.150522 180.174628 0.150522 12.192268-5.418786 21.073056-15.503748 27.545495-14.600617 9.332353-30.405409 10.837572-46.511245 5.71983-15.65427-4.816699-27.99706-16.256357-27.846539-37.178892 0.602087-86.39953 0.301044-222.471263 0.301044-308.870792 0-3.010437-0.301044-4.816699-3.31148-6.472439-52.080553-25.438189-75.561958-84.292224-55.843599-138.630604 20.169925-54.940467 81.582831-84.894311 137.42643-66.982214 50.725856 16.256357 82.636484 65.175952 76.314567 118.611201-4.666177 39.737763-25.739233 68.33691-60.961341 86.550052z"  horiz-adv-x="1024" />

    
    <glyph glyph-name="xingzhuang" unicode="&#58906;" d="M1219.025455 895.348364H83.781818a83.688727 83.688727 0 0 1-83.595636-83.502546v-815.476363c0-46.08 37.515636-83.595636 83.595636-83.595637h1135.336727a83.595636 83.595636 0 0 1 83.688728 83.502546V811.752727a83.595636 83.595636 0 0 1-83.688728 83.595637z m21.783272-899.072a21.783273 21.783273 0 0 0-21.783272-21.597091H83.781818a21.783273 21.783273 0 0 0-21.690182 21.597091V811.752727C61.998545 823.761455 71.68 833.536 83.688727 833.536h1135.336728c12.008727 0 21.783273-9.774545 21.783272-21.597091v-815.476364zM521.681455 372.549818a188.974545 188.974545 0 0 1 75.310545 150.062546 189.626182 189.626182 0 0 1-189.346909 189.44A189.626182 189.626182 0 0 1 218.298182 522.705455c0-61.253818 29.882182-115.432727 75.403636-150.062546a286.440727 286.440727 0 0 1-172.311273-262.330182 30.999273 30.999273 0 0 1 61.905455 0 224.162909 224.162909 0 0 0 218.391273 223.697455c2.048 0 3.909818-0.558545 5.957818-0.558546s3.909818 0.558545 5.957818 0.558546A224.162909 224.162909 0 0 0 632.087273 110.312727a30.999273 30.999273 0 0 1 61.905454 0c0 117.294545-71.121455 218.205091-172.311272 262.330182z m-108.078546 23.272727c-2.048 0.093091-3.909818 0.651636-5.957818 0.651637s-3.909818-0.558545-5.957818-0.651637a127.348364 127.348364 0 0 0 5.957818 254.417455c70.283636 0 127.534545-57.250909 127.534545-127.534545 0-68.235636-54.178909-123.624727-121.576727-126.88291z m703.394909 259.723637H703.022545a30.906182 30.906182 0 1 1 0-61.905455H1117.090909a30.999273 30.999273 0 0 1 0 61.905455z m0-190.836364H703.022545a30.813091 30.813091 0 0 1-30.906181-30.906182v-0.093091c0-17.035636 13.777455-30.999273 30.906181-30.999272H1117.090909a30.999273 30.999273 0 0 1 0 61.905454z m0-190.929454H764.928a30.906182 30.906182 0 0 1 0.093091-61.905455h351.883636a30.999273 30.999273 0 0 1 0 61.905455z"  horiz-adv-x="1303" />

    
    <glyph glyph-name="zifu" unicode="&#58977;" d="M576.7 489.2v-68.6c0-36-4.3-65.5-12.8-88.5s-23.3-42.6-44.2-58.7c-21-16.1-44.7-26.8-71.2-32.2v54.9c18.9 10.7 29.6 25.1 32.2 43.1h-32.2v150h128.2z"  horiz-adv-x="1024" />

    
    <glyph glyph-name="voltage" unicode="&#58887;" d="M167.44466719 518.2834575100001a37.95831153 37.95831153 0 0 0-31.58843264 58.9540029A452.0360416 452.0360416 0 0 0 887.35962949 580.22667756a37.95831153 37.95831153 0 1 0-62.86845339-42.50144721 376.11941855 376.11941855 0 0 1-625.35131928-2.52659968 37.95831153 37.95831153 0 0 0-31.69518963-16.91517316zM510.86062774-11.5078125a45.73976551 45.73976551 0 0 0-39.59526351 23.04781222l-1.10316322 1.94536311-172.61542119 408.05184876a37.95831153 37.95831153 0 0 0 69.91446448 29.57189666L510.97924764 111.67877033000002l144.78723426 339.53709568a37.95831153 37.95831153 0 0 0 69.83143101-29.78541219l-174.02699629-408.05184874-1.10316324-1.93350096a45.73976551 45.73976551 0 0 0-39.60712564-22.95291662z"  horiz-adv-x="1024" />

    
    <glyph glyph-name="shebei1" unicode="&#58914;" d="M200.6528 38.5536v114.2784h602.7264v-114.2784H200.6528z m0 280.0128V441.0368h602.7264v-122.5216H200.6528z m922.9312-222.9248c0-47.36-25.2928-69.7856-56.5248-69.7856s-56.5248 22.528-56.5248 69.7856 25.2928 69.7344 56.5248 69.7344 56.5248-22.4768 56.5248-69.7344zM200.6528 606.8224V729.4976h602.7264v-122.5216H200.6528v-0.1536z m922.9312-227.072c0-50.7392-25.2928-74.0352-56.5248-74.0352s-56.5248 23.1424-56.5248 74.0352 25.2928 74.0352 56.5248 74.0352 56.5248-23.1424 56.5248-74.0352z m0 288.3072c0-50.7392-25.2928-73.984-56.5248-73.984s-56.5248 23.1424-56.5248 73.984 25.2928 74.0352 56.5248 74.0352 56.5248-23.1424 56.5248-74.0352z m50.5856-464.8448h-1024v-215.1936h1024v215.1936z m0 288.3072h-1024v-223.488h1024V491.6736 491.52z m0 288.256h-1024v-223.4368h1024V779.776z"  horiz-adv-x="1323" />

    
    <glyph glyph-name="fpgayunfuwuqi" unicode="&#59152;" d="M595.307 424.79c0 0.213-0.128 0.64-0.342 1.28-1.066 2.56-1.6 4.053-1.6 4.48h-0.32l-1.92-5.76c-0.234-0.427-3.562-8.96-10.026-25.558h24.192a2291.84 2291.84 0 0 1-9.984 25.557m-136.96 6.379H442.88v-24.917h15.467c9.877 0.213 14.933 4.48 15.146 12.8-0.426 7.85-5.482 11.904-15.146 12.117M756.693 573.419H704v32.938h-35.35V658.88h88.086v-85.461zM704 409.877h52.736V553.493H704v-143.616z m0-161.45h52.736V389.952H704v-141.525z m52.736-105.024h-88.107v45.866H704V228.48h52.736v-85.099zM648.64 222.187h22.144V244.16H648.64v-21.973z m0 32.938h22.144v21.952H648.64v-21.973z m0 65.856h22.144v21.952H648.64v-21.973z m0 98.774h22.144v21.973H648.64v-21.973z m0 98.773h22.144v21.973H648.64v-21.973z m-138.667 87.83h138.56V658.88h-138.56v-52.523z m0-462.934h138.56v45.845h-138.56v-45.866z m-27.434 78.763h22.144V244.16h-22.144v-21.973zM346.58 143.403H489.9v45.866H346.58v-45.866z m-30.122 78.784h22.144V244.16h-22.144v-21.973z m10.026-78.784h-89.792V228.5h46.55v-39.253h43.242v-45.845z m-89.792 105.024h46.55V389.952h-46.55v-141.525z m0 161.45h46.55V553.493h-46.55v-143.616z m0 249.003h89.814v-52.523h-43.264v-32.938h-46.55V658.88z m79.766-107.413h22.144v21.952h-22.144v-21.952z m0-296.342h22.144v21.952h-22.144v-21.973z m0 131.712h22.144V408.79h-22.144v-21.973z m0-32.938h22.144v21.973h-22.144v-21.973z m0-65.856h22.144v21.973h-22.144v-21.973z m0 32.938h22.144v21.952h-22.144v-21.973z m0 98.774h22.144v21.973h-22.144v-21.973z m0 32.938h22.144v21.952h-22.144v-21.973z m0 65.856h22.144v21.952h-22.144v-21.973z m0-32.938h22.144v21.952h-22.144v-21.952z m33.216 65.856h22.144v21.952h-22.166v-21.952z m0-329.28h22.144V244.16h-22.166v-21.973z m-3.094 384.17H489.9V658.88H346.58v-52.523z m102.742-54.89h22.144v21.952h-22.144v-21.952z m-33.216-329.28h22.144V244.16h-22.144v-21.973z m0 329.28h22.144v21.952h-22.144v-21.952z m-33.216 0h22.144v21.952H382.89v-21.952z m0-329.28h22.144V244.16H382.89v-21.973z m2.325 180.245v-28.757h-10.304v65.493h46.08v-8.32h-35.776v-20.437h31.253v-7.979h-31.253z m64.107-180.245h22.144V244.16h-22.144v-21.973z m10.325 176.085h-16.747v-24.597h-10.325v65.493h28.053c14.806-0.64 22.656-7.253 23.51-19.819-0.214-13.845-8.384-20.864-24.491-21.077z m22.89 153.195h22.145v21.952h-22.144v-21.952z m33.217-329.28h22.144V244.16h-22.144v-21.973z m33.216 329.28h22.144v21.952H548.97v-21.952z m0-329.28h22.144V244.16H548.97v-21.973z m33.237 0h22.144V244.16h-22.165v-21.973z m33.216 0h22.144V244.16h-22.144v-21.973z m0 329.28h22.123v21.952h-22.144v-21.952z m-33.237 0h22.144v21.952h-22.144v-21.952z m5.077-112.299h11.925l26.411-65.493h-10.944l-6.763 17.578H578.56l-6.763-17.578h-10.965l26.432 65.493z m-71.51 112.299H537.9v21.952h-22.144v-21.952z m8.662-111.36c15.253-0.214 25.259-6.059 29.973-17.558l-9.664-3.52c-3.221 8.32-9.984 12.459-20.309 12.459-12.885-1.28-19.861-9.685-20.928-25.237 0.853-15.958 8.256-24.491 22.23-25.536 9.237 0.213 15.786 2.858 19.647 7.978v12.779h-21.589v8.32h30.933v-24.299c-4.501-8.32-14.165-12.565-29.013-12.778-20.821 1.066-31.787 12.245-32.853 33.536 1.066 21.525 11.605 32.789 31.573 33.877zM648.64 485.61h22.144v21.952H648.64v-21.952z m0-32.918h22.144v21.952H648.64v-21.973z m0-65.856h22.144V408.79H648.64v-21.973z m0-32.938h22.144v21.973H648.64v-21.973z m0-65.856h22.144v21.973H648.64v-21.973z m0 263.424h22.144V573.44H648.64v-21.952z m238.08-21.44v64.426h-64.981V658.88c0 35.605-29.12 64.427-65.003 64.427h-65.024v64.469h-65.003v-64.427h-97.493v64.427h-65.003v-64.427H366.72v64.427h-65.067v-64.427h-65.002c-35.904 0-65.003-28.842-65.003-64.426v-64.448h-64.981v-64.427h65.002v-96.661h-65.002v-64.427h65.002v-96.661h-65.002v-64.427h65.002v-64.427c0-35.626 29.099-64.448 65.003-64.448h65.003v-64.426h65.002v64.426h97.494v-64.426h65.024v64.426h97.493v-64.426h65.003v64.426h65.024c35.882 0 65.002 28.843 65.002 64.427v64.427h65.003v64.448h-65.003v96.64h65.003v64.448h-65.003v96.64h65.003z"  horiz-adv-x="1024" />

    
    <glyph glyph-name="cipan1" unicode="&#59059;" d="M1025.93536 192.38912v-127.92064c0-70.64832-57.27232-127.9232-127.9232-127.9232H130.4832c-70.65088 0-127.9232 57.27488-127.9232 127.9232v191.88224L130.4832 832h767.53152l127.92064-575.64928v-63.9616zM194.44224 0.50688h639.61088c70.67648 0 127.9232-6.71488 127.9232 63.9616v127.9232H66.51904v-127.9232c0-70.67648 57.56416-63.9616 127.9232-63.9616zM834.05312 768.0384H194.44224l-127.9232-511.68768h895.45472l-127.9232 511.68768zM450.28608 0.50688H386.3296v127.9232h63.95904v-127.9232z m127.9232 0h-63.9616v127.9232h63.9616v-127.9232z m127.9232 0h-63.9616v127.9232h63.95904v-127.9232z m127.92064 0h-63.9616v127.9232h63.9616v-127.9232z"  horiz-adv-x="1025" />

    
    <glyph glyph-name="jinggao1" unicode="&#59548;" d="M512.0164794921875 251.876495361328c18.583099365234375 0 33.703033447265625 15.119110107421877 33.703033447265625 33.704681396484375V535.1416625976562c0 18.583099365234375-15.119110107421877 33.703033447265625-33.70385742187501 33.703033447265625-18.58145141601562 0-33.7005615234375-15.119110107421877-33.7005615234375-33.703033447265625v-249.56048583984378c0.0016479492187499998-18.5855712890625 15.119110107421877-33.704681396484375 33.7005615234375-33.704681396484375zM512.0164794921875 208.256103515625c-12.51617431640625 0-24.774444580078125-5.076507568359375-33.63629150390625-13.930938720703125-8.852783203125-8.8560791015625-13.930114746093748-21.115997314453125-13.930114746093748-33.638763427734375 0-12.5211181640625 5.077331542968749-24.781036376953125 13.930938720703125-33.6346435546875 8.85443115234375-8.852783203125 21.114349365234375-13.930114746093748 33.6346435546875-13.930114746093748 12.5211181640625 0 24.780212402343754 5.077331542968749 33.6346435546875 13.930938720703125 8.8560791015625 8.856903076171875 13.934234619140627 21.11517333984375 13.934234619140627 33.6346435546875 0 12.519470214843752-5.078155517578126 24.781036376953125-13.936706542968752 33.64041137695312-8.85772705078125 8.851959228515625-21.11517333984375 13.928466796875-33.632171630859375 13.928466796875zM830.261016845703 9.0750732421875H193.73733520507812c-24.309722900390625 0-46.0799560546875 13.743896484375-58.23522949218751 36.7657470703125s-12.1552734375 50.510467529296875 0 73.53231811523438L453.7647705078125 722.1591796875c12.154449462890625 23.0218505859375 33.92550659179688 36.7657470703125 58.23522949218751 36.7657470703125 24.310546875 0 46.08160400390625-13.743896484375 58.23687744140626-36.7657470703125l318.26019287109375-602.7852172851562a78.69781494140625 78.69781494140625 0 0 0 0-73.53231811523438c-12.1552734375-23.0218505859375-33.92550659179688-36.7657470703125-58.23605346679688-36.7657470703125zM511.9991760253907 702.251953125c-2.6754455566406246 0-9.334808349609375-0.8206787109375-13.352508544921875-8.429260253906252L180.38565063476562 91.0374755859375c-4.016876220703125-7.608581542968748-1.3381347656250002-14.325622558593748 0-16.858520507812504 1.338958740234375-2.535369873046875 5.318756103515625-8.430908203125 13.352508544921875-8.430908203125h636.523681640625c8.034576416015625 0 12.014373779296875 5.89471435546875 13.352508544921875 8.430084228515625 1.338958740234375 2.5345458984375 4.0177001953125 9.250762939453125 0 16.85934448242187L525.3525085449219 693.8226928710938c-4.0177001953125 7.607757568359376-10.676239013671877 8.429260253906252-13.35333251953125 8.429260253906252z"  horiz-adv-x="1024" />

    
    <glyph glyph-name="guize2" unicode="&#58990;" d="M147 782h680v-315.6h50V832H97v-896h307.6v50H147zM237 294.8h107.6v-50H237z m0 320.2h500v-50H237z m690-444.9v50h-81.8c-4.2 29.6-15.9 56.9-33.1 79.8l57.8 57.8-35.4 35.4-57.8-57.8c-22.9 17.2-50.2 28.8-79.8 33.1v81.8h-50v-81.8c-29.6-4.2-56.9-15.9-79.8-33.1l-57.8 57.8-35.3-35.3 57.8-57.8c-17.2-22.9-28.8-50.2-33.1-79.8H417v-50h81.8c4.2-29.6 15.9-56.9 33.1-79.8L474 32.5l35.4-35.4 57.8 57.8c22.9-17.2 50.2-28.8 79.8-33.1V-60h50v81.8c29.6 4.2 56.9 15.9 79.8 33.1l57.8-57.8 35.4 35.4-57.8 57.8c17.2 22.9 28.8 50.2 33.1 79.8H927z m-131.3 7.1c-2.9-20.6-11.1-40.2-23.6-56.9l-10.8-14.5-14.5-10.8c-16.7-12.5-36.3-20.6-56.9-23.6l-17.9-2.6-17.9 2.6c-20.6 2.9-40.2 11.1-56.9 23.6l-14.5 10.8-10.8 14.5c-12.5 16.7-20.6 36.3-23.6 56.9l-2.6 17.9 2.6 17.9c2.9 20.6 11.1 40.2 23.6 56.9l10.8 14.5 14.5 10.8c16.7 12.5 36.3 20.6 56.9 23.6l17.9 2.6 17.9-2.6c20.6-2.9 40.2-11.1 56.9-23.6l14.5-10.8 10.8-14.5c12.5-16.7 20.6-36.3 23.6-56.9l2.6-17.9-2.6-17.9zM237 454.9h167.6v-50H237z"  horiz-adv-x="1024" />

    
    <glyph glyph-name="wendu1" unicode="&#59007;" d="M627-63c-121.5 0-220 98.5-220 220a220.038 220.038 0 0 0 130 200.8V741a90 90 0 0 0 180 0v-383.2A220.038 220.038 0 0 0 847 157c0-121.5-98.5-220-220-220z m30 377.18V741a30 30 0 0 1-60 0v-426.82a160 160 0 1 1 60 0zM627 23a129.992 129.992 0 0 0-15.211 259.091A29.987 29.987 0 1 0 619 223v-0.469a69.994 69.994 0 1 1 77.026-81.022A29.988 29.988 0 0 0 755.849 144h0.835A130 130 0 0 0 627 23z m0.5 326a10.5 10.5 0 0 0-10.5 10.5v361a10.5 10.5 0 0 0 21 0v-361a10.5 10.5 0 0 0-10.5-10.5zM447 590H267a30 30 0 0 0 0 60h180a30 30 0 0 0 0-60z m0 120H207a30 30 0 0 0 0 60h240a30 30 0 0 0 0-60z m0-360H317a30 30 0 0 0 0 60h130a30 30 0 0 0 0-60z m0 120H217a30 30 0 0 0 0 60h230a30 30 0 0 0 0-60z"  horiz-adv-x="1024" />

    
    <glyph glyph-name="shebeigaojingmingxi" unicode="&#59300;" d="M708.48 896H488.448c-26.752 0-47.168-22.976-47.168-52.992v-812.16h-62.912V843.072C378.368 871.296 357.952 896 331.2 896H111.168C84.416 896 64 873.024 64 843.008v-918.016c0-28.288 20.48-52.992 47.168-52.992h220.032c26.752 0 47.168 22.976 47.168 52.992v35.264h62.912v-35.264c0-28.288 20.416-52.992 47.168-52.992h220.032c26.752 0 47.168 22.976 47.168 52.992V843.008c0 30.08-20.48 52.992-47.168 52.992zM205.44-39.68h-62.848v70.592h62.912v-70.656zM299.84 737.024H142.592V807.744h157.184v-70.656zM582.72-39.68h-62.848v70.656h62.848v-70.656zM677.12 737.088H519.872V807.744h157.184v-70.656zM914.432-128c-25.152 0-45.632 22.976-45.632 51.2V844.8c0 28.224 20.48 51.2 45.632 51.2 25.152 0 45.568-22.976 45.568-51.2v-921.6c0-28.224-20.48-51.2-45.568-51.2z"  horiz-adv-x="1024" />

    
    <glyph glyph-name="drqz" unicode="&#58970;" d="M603.48645618 663.57240596H445.68489104a5.40716661 5.40716661 0 0 0 0 10.84355987h157.81617847a5.40716661 5.40716661 0 1 0-0.01461333-10.84355987zM606.10235476 581.63191869H448.33001745a5.40716661 5.40716661 0 1 0 0 10.81433322H606.11696928a5.40716661 5.40716661 0 1 0-0.01461452-10.81433322zM527.20157279 663.77700086a5.21718503 5.21718503 0 0 0-5.18795719 5.21718504V832.88977377a5.20257051 5.20257051 0 1 0 10.40514101 0v-163.89558787a5.21718503 5.21718503 0 0 0-5.21718382-5.21718504zM527.20157279 417.94092692a5.21718503 5.21718503 0 0 0-5.18795719 5.21718503V587.05369983a5.20257051 5.20257051 0 0 0 10.40514101 0V423.15811195a5.21718503 5.21718503 0 0 0-5.21718382-5.21718503zM603.48645618 417.76555986H445.68489104a5.40716661 5.40716661 0 0 0 0 10.81433202h157.81617847a5.40716661 5.40716661 0 1 0-0.01461333-10.81433202zM606.10235476 335.79584475H448.33001745a5.40716661 5.40716661 0 1 0 0 10.84356106H606.11696928a5.40716661 5.40716661 0 1 0-0.01461452-10.84356106zM527.20157279 417.94092692a5.21718503 5.21718503 0 0 0-5.18795719 5.21718503V587.05369983a5.20257051 5.20257051 0 0 0 10.40514101 0V423.15811195a5.21718503 5.21718503 0 0 0-5.21718382-5.21718503zM527.20157279 172.09023965999995a5.20257051 5.20257051 0 0 0-5.18795719 5.20257051V341.21762589a5.21718503 5.21718503 0 1 0 10.40514101 0v-163.89558788a5.21718503 5.21718503 0 0 0-5.21718382-5.23179835zM603.48645618 171.90025807999996H445.68489104a5.40716661 5.40716661 0 0 0 0 10.84355985h157.81617847a5.40716661 5.40716661 0 1 0-0.01461333-10.84355985zM606.10235476 89.94515748000003H448.33001745a5.40716661 5.40716661 0 1 0 0 10.84355986H606.11696928a5.40716661 5.40716661 0 1 0-0.01461452-10.84355986zM527.20157279 172.09023965999995a5.20257051 5.20257051 0 0 0-5.18795719 5.20257051V341.21762589a5.21718503 5.21718503 0 1 0 10.40514101 0v-163.89558788a5.21718503 5.21718503 0 0 0-5.21718382-5.23179835zM527.20157279-73.74583428999995a5.21718503 5.21718503 0 0 0-5.18795719 5.20257051V95.36693740999999a5.21718503 5.21718503 0 0 0 10.40514101 0v-163.91020119a5.20257051 5.20257051 0 0 0-5.21718382-5.20257051z"  horiz-adv-x="1024" />

    
    <glyph glyph-name="shebeigaojingchaxun" unicode="&#58982;" d="M229.888 718.848h461.824v-57.856H229.888V718.848z m-1.536-116.224h461.824v-57.856H228.352V602.624zM114.176 835.072h692.736v-461.824H865.28V835.072c0 31.744-25.6 57.856-57.856 57.856H114.176C82.432 892.928 56.32 867.328 56.32 835.072v-808.448c0-31.744 25.6-57.856 57.856-57.856h404.48v57.856h-404.48V835.072z m115.2-463.36v-57.856h140.288c0 19.968 3.072 39.424 8.192 57.856h-148.48z m236.032 115.712H228.352v-57.856h175.616c16.384 23.04 37.376 43.008 61.44 57.856z m437.248-464.896L770.048 153.6c30.208 35.328 48.64 81.408 48.64 131.584 0 111.616-90.624 202.24-202.24 202.24s-202.24-90.624-202.24-202.24 90.624-202.24 202.24-202.24c40.448 0 77.824 11.776 109.568 32.256l135.168-133.632c11.264-11.264 29.696-11.264 40.96 0 11.776 11.264 11.776 29.696 0.512 40.96z m-430.08 262.656c0 79.872 64.512 144.384 144.384 144.384s144.384-64.512 144.384-144.384-64.512-144.384-144.384-144.384c-79.36 0-144.384 64.512-144.384 144.384z"  horiz-adv-x="1044" />

    
    <glyph glyph-name="tiaoshi" unicode="&#60257;" d="M544 507.488V800a32 32 0 0 1-64 0v-292.512c-55.104-14.272-96-63.904-96-123.488s40.896-109.216 96-123.488v-291.616c0-18.176 14.336-32.896 32-32.896s32 14.72 32 32.928v291.616c55.104 14.272 96 63.904 96 123.488s-40.896 109.184-96 123.456zM223.136 187.744C223.328 189.184 224 190.496 224 192V800a32 32 0 0 1-64 0v-608c0-1.504 0.672-2.816 0.864-4.256A127.744 127.744 0 0 1 64 64a128 128 0 0 1 256 0 127.744 127.744 0 0 1-96.864 123.744zM192 0a64 64 0 1 0 0.032 128.032A64 64 0 0 0 192 0zM960 704a128 128 0 0 1-256 0 127.744 127.744 0 0 1 96.864-123.744c-0.192-1.44-0.864-2.752-0.864-4.256v-608a32 32 0 0 1 64 0V576c0 1.504-0.672 2.816-0.864 4.256A127.744 127.744 0 0 1 960 704z m-128-64a64 64 0 1 0 0.032 128.032A64 64 0 0 0 832 640z"  horiz-adv-x="1024" />

    
    <glyph glyph-name="changjingguanli" unicode="&#60258;" d="M592 560h-416c-52.928 0-96-43.072-96-96v-416c0-52.928 43.072-96 96-96h416c52.928 0 96 43.072 96 96v416c0 52.928-43.072 96-96 96z m32-512a32 32 0 0 0-32-32h-416c-17.632 0-32 14.336-32 32v416c0 17.632 14.368 32 32 32h416c17.664 0 32-14.368 32-32v-416zM720 688h-416a32 32 0 0 1 0-64h416c17.664 0 32-14.368 32-32v-416a32 32 0 1 1 64 0v416c0 52.928-43.072 96-96 96zM528 144h-288a32 32 0 1 1 0-64h288a32 32 0 1 1 0 64zM848 816h-416a32 32 0 0 1 0-64h416c17.664 0 32-14.368 32-32v-416a32 32 0 1 1 64 0v416c0 52.928-43.072 96-96 96z"  horiz-adv-x="1024" />

    
    <glyph glyph-name="guanlianshebei" unicode="&#60259;" d="M260.096 352H160a32 32 0 0 0-32 32V640h480v-256a32 32 0 0 0-32-32h-54.976a32 32 0 0 1 0-64H576a96 96 0 0 1 96 96V736a96 96 0 0 1-96 96H160a96 96 0 0 1-96-96v-352a96 96 0 0 1 96-96h100.096a32 32 0 0 1 0 64zM128 736a32 32 0 0 0 32 32h416a32 32 0 0 0 32-32v-32H128V736zM864 480h-90.88a32 32 0 0 1 0-64H864a32 32 0 0 0 32-32v-256H416v256a32 32 0 0 0 32 32h63.072a32 32 0 0 1 0 64H448a96 96 0 0 1-96-96v-352a96 96 0 0 1 96-96h416a96 96 0 0 1 96 96V384a96 96 0 0 1-96 96z m32-448a32 32 0 0 0-32-32H448a32 32 0 0 0-32 32v32h480v-32z"  horiz-adv-x="1024" />

    
    <glyph glyph-name="jishufuwu" unicode="&#60260;" d="M435.2 569.6a32 32 0 0 1-44.8-6.4l-96-128a31.968 31.968 0 0 1 0-38.4l96-128a32 32 0 0 1 51.2 38.4L360 416l81.6 108.8a32 32 0 0 1-6.4 44.8zM748.8 262.4a32 32 0 0 1 44.8 6.4l96 128a31.968 31.968 0 0 1 0 38.4l-96 128a32 32 0 0 1-51.2-38.4l81.6-108.8-81.6-108.8a32 32 0 0 1 6.4-44.8zM592.768 582.944l-64-288a32 32 0 1 1 62.464-13.888l64 288a32 32 0 1 1-62.464 13.888zM864 259.616a32 32 0 0 1-32-32V160h-96a96 96 0 0 1-96-96v-96H227.04C207.712-32 192-15.424 192 4.928V763.072C192 783.424 207.712 800 227.04 800h569.888C816.288 800 832 783.424 832 763.072v-124.448a32 32 0 1 1 64 0V763.072C896 818.72 851.552 864 796.928 864H227.04C172.448 864 128 818.72 128 763.072v-758.144C128-50.72 172.448-96 227.04-96h435.008c1.568 0 2.912 0.672 4.416 0.896 8.96-1.6 18.464 0.256 25.984 6.528l192 160a32 32 0 0 1 10.144 33.888c0.544 2.272 1.408 4.416 1.408 6.848v115.456a32 32 0 0 1-32 32zM736 96h78.016L704 4.32V64a32 32 0 0 0 32 32z"  horiz-adv-x="1024" />

    
    <glyph glyph-name="hezuohuobanmiyueguanli" unicode="&#60261;" d="M928 352h-96v64h96a32 32 0 0 1 0 64h-128a32 32 0 0 1-32-32v-227.84A143.872 143.872 0 0 1 800-64a144 144 0 0 1 144 144 143.904 143.904 0 0 1-112 140.16V288h96a32 32 0 0 1 0 64z m-48-272a80 80 0 1 0-160 0 80 80 0 0 0 160 0zM572.608 9.248l-0.864-0.288c-198.752-14.464-419.68 2.464-466.592 26.912 11.264 30.208 82.88 74.784 222.88 90.144a32 32 0 0 1 28.512 31.808v38.048c0 10.848-5.504 20.96-14.624 26.88-51.2 33.088-96.128 87.552-123.264 149.376a32.256 32.256 0 0 1-15.04 15.808c-8.672 4.32-21.728 19.904-34.656 69.696-4.96 19.072-1.568 32.768 10.624 43.04 6.816 5.76 10.912 14.08 11.328 23.008C197.76 676.672 283.2 768 419.392 768c133.472 0 215.104-86.528 223.936-237.376 0.608-10.144 5.984-19.392 14.464-24.928 12.992-8.48 16.896-20.608 12.384-38.144-12.544-48.288-25.024-58.464-29.856-60.576a31.968 31.968 0 0 1-17.056-18.176c-24.992-67.808-72.352-129.728-126.656-165.664a32 32 0 0 1-14.336-26.688v-38.592a32 32 0 0 1 28.512-31.808c11.296-1.216 28.96-3.968 53.056-8.16 17.376-2.912 33.984 8.672 36.992 26.048s-8.672 33.984-26.048 36.992a1699.968 1699.968 0 0 1-22.112 3.712c54.08 42.016 99.136 102.816 126.464 171.04 30.112 20.96 44.096 61.472 52.992 95.776 9.888 38.08 0.192 73.408-25.984 97.472C690.56 723.968 581.76 832 419.392 832c-168 0-278.848-111.776-291.712-292.672-22.816-25.6-30.368-60.448-20.672-97.728 13.984-53.856 31.904-86.784 57.28-104.512 28.224-60.224 71.04-114.144 120.48-152.192-150.176-23.328-245.216-83.328-245.216-157.088 0-9.088 2.816-22.56 16.192-35.008 43.2-40.064 211.488-52.864 360.32-52.864 61.408 0 119.52 2.176 164.128 5.536 2.496 0.192 4.96 0.672 7.36 1.44l4.512 1.44a32 32 0 0 1 20.704 40.224 31.776 31.776 0 0 1-40.16 20.672z"  horiz-adv-x="1024" />

    
    <glyph glyph-name="ceshishenqing" unicode="&#60262;" d="M607.232 0a32 32 0 1 0 0-64H192a96 96 0 0 0-96 96V736a96 96 0 0 0 96 96h544a96 96 0 0 0 96-96 32 32 0 0 0-64 0 32 32 0 0 1-32 32H192a32 32 0 0 1-32-32v-704a32 32 0 0 1 32-32h415.232zM832 310.24v-146.656c0-42.656-64-42.656-64 0v146.656c0 42.688 64 42.688 64 0zM288 576a32 32 0 1 0 0 64h224a32 32 0 0 0 0-64H288zM288 416a32 32 0 0 0 0 64h128a32 32 0 0 0 0-64H288zM639.424-30.592a32 32 0 1 0-64 0L576 96a96 96 0 0 0 96 96l127.744-1.152a32 32 0 1 0 0-64L672 128a32 32 0 0 1-32-32l-0.576-126.592zM637.92-51.648a32 32 0 1 0-44.32 46.208l180.384 172.992a32 32 0 1 0 44.288-46.176l-180.352-173.024zM880.896 561.472a31.424 31.424 0 0 1 3.328 44.416l-0.416 0.512a32 32 0 0 1-44.896 3.36L408.32 243.712l-15.2-51.84 58.336 4.544 429.44 365.056z m51.616 86.4a95.36 95.36 0 0 0-9.408-134.496l-438.08-372.448a32 32 0 0 0-18.24-7.52l-114.944-8.896a32 32 0 0 0-33.184 40.928l30.944 105.472a32 32 0 0 0 9.984 15.36L797.408 658.496a96 96 0 0 0 134.688-10.112l0.416-0.512z"  horiz-adv-x="1024" />

    
    <glyph glyph-name="jiedianguanli" unicode="&#60263;" d="M512 384m-192 0a192 192 0 1 1 384 0 192 192 0 1 1-384 0ZM960 384c0 53.6-9.408 105.92-27.616 155.2a32 32 0 0 1-60.032-22.144c15.584-42.24 23.648-87.072 23.648-133.056 0-22.048-2.272-43.552-5.856-64.576A63.808 63.808 0 0 1 832 256c0-18.88 8.32-35.68 21.344-47.392C789.6 84.832 660.832 0 512 0 299.936 0 128 171.936 128 384c0 22.048 2.272 43.552 5.856 64.576A63.808 63.808 0 0 1 192 512c0 18.88-8.32 35.68-21.344 47.392C234.4 683.168 363.168 768 512 768c33.312 0 65.824-4.736 97.312-12.96A64.064 64.064 0 0 1 736 768a64 64 0 0 1-64 64c-16.256 0-30.944-6.272-42.24-16.256A448.864 448.864 0 0 1 512 832C331.712 832 176.736 725.28 105.664 571.776A63.872 63.872 0 0 1 64 512c0-12.576 3.744-24.224 10.016-34.112A449.344 449.344 0 0 1 64 384c0-247.424 200.576-448 448-448 180.288 0 335.264 106.72 406.336 260.224A63.872 63.872 0 0 1 960 256c0 12.576-3.744 24.224-10.016 34.112 6.464 30.304 10.016 61.664 10.016 93.888z"  horiz-adv-x="1024" />

    
    <glyph glyph-name="peiwangyindao" unicode="&#60264;" d="M224 139.072h224a32 32 0 0 0 31.52-26.432c3.168-18.304 18.272-26.944 32.992-26.304 14.144-0.64 28.672 7.392 32.672 24.512 3.968 16.992 16.928 28.224 30.816 28.224h224a96 96 0 0 1 96 96V672a96 96 0 0 1-96 96h-224c-24.448 0-46.24-9.952-63.008-25.728A95.36 95.36 0 0 1 448 768H224a96 96 0 0 1-96-96v-436.928a96 96 0 0 1 96-96zM576 704h224a32 32 0 0 0 32-32v-436.928a32 32 0 0 0-32-32h-224c-11.2 0-21.984-2.048-32-5.824V665.376C544 687.36 559.072 704 576 704zM192 672a32 32 0 0 0 32 32h224a32 32 0 0 0 32-32v-474.432a95.872 95.872 0 0 1-32 5.472H224a32 32 0 0 0-32 32V672zM957.984 608a32 32 0 0 1-32-32v-448a32 32 0 0 0-32-32h-224a96.096 96.096 0 0 1-83.168-48h-151.648A96.096 96.096 0 0 1 352 96H128a32 32 0 0 0-32 32V576a32 32 0 0 1-64 0v-448a96 96 0 0 1 96-96h224c14.688 0 27.392-9.984 31.008-23.968a32 32 0 0 1 31.008-24.032H608c14.592 0 27.36 9.888 31.008 24.032a32 32 0 0 0 30.976 23.968h224a96 96 0 0 1 96 96V576a32 32 0 0 1-32 32zM272 560h113.152a32 32 0 0 1 0 64H272a32 32 0 0 1 0-64zM272 432h113.152a32 32 0 0 1 0 64H272a32 32 0 0 1 0-64z"  horiz-adv-x="1024" />

    
    <glyph glyph-name="renjijiaohu" unicode="&#60265;" d="M948.448 360.512c-25.856 119.584-111.008 238.24-182.272 217.632-25.504-7.36-45.088-20.832-57.728-39.424-22.976 10.656-46.496 11.68-69.504 1.536a86.112 86.112 0 0 1-40.256-35.52c-26.496 13.408-56.96 13.12-88.896-1.856a107.2 107.2 0 0 1-19.232-11.456c-77.824 109.984-141.408 159.616-198.72 146.624-81.152-18.368-81.152-89.152-19.584-181.856l118.208-182.784c-64.864 12.192-111.776 1.728-139.584-35.424-45.472-60.8 2.656-116.96 114.4-167.232l215.968-96.064a32 32 0 0 1 26.016 58.464l-215.84 96c-43.552 19.584-72.32 37.952-85.568 53.44-7.68 8.96-7.904 11.456-3.712 17.056 15.808 21.12 64.928 21.12 150.56-10.816 28.864-10.784 54.784 21.472 38.048 47.36l-164.96 255.072C284.8 552.992 284.8 570.816 305.984 575.616c28.064 6.336 87.104-49.408 165.536-170.56 5.888-13.888 15.072-28.352 27.392-42.976 25.472-30.272 72.416 3.552 51.776 37.312a2035.2 2035.2 0 0 1-23.04 36.832c0.544 3.744 3.872 6.144 9.312 8.704 22.464 10.528 36.48 6.528 52.192-15.68 17.472-24.64 56.224-13.6 58.048 16.576 1.28 21.184 7.136 31.296 17.536 35.872 8.96 3.936 20.096 0.544 37.472-16a32 32 0 0 1 53.952 20.32c1.472 16.544 9.024 25.248 27.808 30.688 19.712 5.696 83.136-82.688 101.952-169.696 13.536-62.592 13.536-136.992-0.32-223.136a32 32 0 1 1 63.2-10.144c15.008 93.504 15.008 175.776-0.352 246.784zM300.8 0H164.256C144.352 0 128 16.608 128 37.344V730.656C128 751.392 144.352 768 164.256 768h375.456C559.648 768 576 751.392 576 730.656a32 32 0 0 1 64 0C640 786.528 595.232 832 539.744 832H164.256C108.768 832 64 786.528 64 730.656v-693.344C64-18.528 108.768-64 164.256-64H300.8a32 32 0 0 1 0 64z"  horiz-adv-x="1024" />

    
    <glyph glyph-name="shiyongwendang" unicode="&#60266;" d="M288 576h448a32 32 0 0 1 0 64H288a32 32 0 0 1 0-64zM288 352h448a32 32 0 0 1 0 64H288a32 32 0 0 1 0-64zM544 192H288a32 32 0 0 1 0-64h256a32 32 0 0 1 0 64zM896 763.072C896 818.72 851.552 864 796.928 864H227.04C172.448 864 128 818.72 128 763.072v-758.144C128-50.72 172.448-96 227.04-96h435.008c1.568 0 2.912 0.672 4.416 0.896 8.96-1.6 18.464 0.256 25.984 6.528l192 160a31.424 31.424 0 0 1 10.816 27.2c0.16 1.184 0.736 2.208 0.736 3.424V763.072zM192 4.928V763.072C192 783.424 207.712 800 227.04 800h569.888C816.288 800 832 783.424 832 763.072V160h-96a96 96 0 0 1-96-96v-96H227.04C207.712-32 192-15.424 192 4.928zM814.016 96L704 4.32V64a32 32 0 0 0 32 32h78.016z"  horiz-adv-x="1024" />

    
    <glyph glyph-name="quanxianshenpi" unicode="&#60267;" d="M509.088 307.008v23.872c35.936 22.816 70.656 62.88 89.536 112.064 13.408 5.696 23.04 21.824 30.816 50.56 6.016 22.304-3.648 36.992-16.672 45.12C606.368 643.616 543.808 704 448 704c-97.184 0-162.688-62.144-167.744-169.92-11.808-9.568-19.392-24.864-13.472-46.688 8.416-31.136 18.752-48.992 33.056-55.84 20.224-44.192 53.248-80.032 87.072-101.024v-23.52C292.896 297.088 224 264.864 224 226.624c0-46.144 448-46.144 448 0 0 38.24-68.896 70.464-162.912 80.384zM864 128V736a96 96 0 0 1-96 96H160a96 96 0 0 1-96-96v-608a96 96 0 0 1 96-96h608a96 96 0 0 1 96 96zM128 128V736a32 32 0 0 0 32 32h608a32 32 0 0 0 32-32v-608a32 32 0 0 0-32-32H160a32 32 0 0 0-32 32zM944.896 730.144a32 32 0 0 1-32-32v-679.104c0-19.84-16.064-35.904-35.904-35.904h-611.2a32 32 0 0 1 0-64h611.2a99.904 99.904 0 0 1 99.904 99.904V698.144a32 32 0 0 1-32 32z"  horiz-adv-x="1024" />

    
    <glyph glyph-name="yishouquan" unicode="&#60268;" d="M864 320h-250.144A204.288 204.288 0 0 0 608 365.984c0 77.088 43.2 146.56 110.752 181.632a31.104 31.104 0 0 1 11.584 11.072C771.52 579.936 800 622.432 800 672a128 128 0 0 1-128 128H352a128 128 0 0 1-128-128c0-49.568 28.48-92.064 69.664-113.312a31.104 31.104 0 0 1 11.584-11.072A204.544 204.544 0 0 0 416 365.984c0-15.712-2.4-30.976-5.888-45.984H160a96 96 0 0 1-96-96v-64a96 96 0 0 1 96-96c0-54.272 49.088-96 107.296-96h489.408C814.912-32 864 9.728 864 64a96 96 0 0 1 96 96v64a96 96 0 0 1-96 96z m-452.384 224h37.024a32 32 0 0 1 0 64H352a64 64 0 0 0 0 128h320a64 64 0 0 0 0-128h-102.112a32 32 0 0 1 0-64h42.496a267.04 267.04 0 0 1-64.416-224h-71.936a267.04 267.04 0 0 1-64.416 224zM896 160a32 32 0 0 0-32-32h-55.712a32 32 0 0 1-32-32c0-14.72 10.144-26.592 23.712-30.336V64c0-16.416-18.336-32-43.296-32H267.296C242.336 32 224 47.584 224 64h456.128a32 32 0 0 1 0 64H160a32 32 0 0 0-32 32v64a32 32 0 0 0 32 32h704a32 32 0 0 0 32-32v-64z"  horiz-adv-x="1024" />

    
    <glyph glyph-name="tianshenpi" unicode="&#60269;" d="M575.232 0H160a32 32 0 0 0-32 32V736a32 32 0 0 0 32 32h544c17.664 0 32-14.336 32-32a32 32 0 0 1 64 0 96 96 0 0 1-96 96H160a96 96 0 0 1-96-96v-704a96 96 0 0 1 96-96h415.232a32 32 0 0 1 0 64zM512 608a32 32 0 0 1-32 32H224a32 32 0 0 1 0-64h256a32 32 0 0 1 32 32zM480 416a32 32 0 0 1-32 32H224a32 32 0 0 1 0-64h224a32 32 0 0 1 32 32zM224 224a32 32 0 0 1 0-64h128a32 32 0 0 1 0 64H224zM864 272h-66.176C822.08 339.712 864 464.352 864 480a160 160 0 0 1-320 0c0-20.064 39.84-139.744 65.696-208H544a96 96 0 0 1-96-96v-32a96 96 0 0 1 96-96h320a96 96 0 0 1 96 96v32a96 96 0 0 1-96 96z m-221.536 98.464C623.104 426.24 608 475.392 608 480a96 96 0 1 0 192 0c0-6.304-52.192-158.464-70.336-208h-51.2c-8 20.16-22.4 59.264-36 98.464zM896 144a32 32 0 0 0-32-32H544a32 32 0 0 0-32 32v32a32 32 0 0 0 32 32h320a32 32 0 0 0 32-32v-32z"  horiz-adv-x="1024" />

    
    <glyph glyph-name="shujukanban" unicode="&#60270;" d="M979.2 737.152a32 32 0 0 1-38.4 23.936l-166.848-38.656a32 32 0 0 1-15.808-53.408L794.56 631.36l-194.56-173.568-101.024 95.68a32 32 0 0 1-45.152-1.152l-216.736-227.264A64 64 0 1 1 288 262.4c0 6.944-1.376 13.472-3.424 19.712l193.536 202.944 99.232-93.952a32 32 0 0 1 43.296-0.64L839.04 585.28l41.504-42.976a32 32 0 0 1 53.92 13.92l44.448 165.408a31.84 31.84 0 0 1 0.288 15.52zM928 445.536a32 32 0 0 1-32-32V160a32 32 0 0 0-32-32H160a32 32 0 0 0-32 32V736a32 32 0 0 0 32 32h530.656a32 32 0 0 1 0 64H160a96 96 0 0 1-96-96v-576a96 96 0 0 1 96-96h704a96 96 0 0 1 96 96v253.536a32 32 0 0 1-32 32zM912 0h-800a32 32 0 0 1 0-64h800a32 32 0 0 1 0 64z"  horiz-adv-x="1024" />

    
    <glyph glyph-name="zhanghaoquanxianguanli" unicode="&#60271;" d="M832 490.656h-224a32 32 0 0 1 0-64h224a32 32 0 0 1 0 64zM832 330.656h-224a32 32 0 0 1 0-64h224a32 32 0 0 1 0 64zM404.352 260.64v20.864c30.816 19.968 60.544 55.04 76.768 98.048 11.488 4.992 19.744 19.104 26.4 44.256 5.152 19.488-3.104 32.352-14.272 39.488C487.744 555.168 434.144 608 352 608c-83.296 0-139.456-54.368-143.776-148.672-10.112-8.352-16.608-21.76-11.552-40.864 7.2-27.232 16.096-42.88 28.352-48.864 17.312-38.656 45.664-70.016 74.624-88.384v-20.576C219.04 251.968 160 223.744 160 190.272c0-40.384 384-40.384 384 0 0 33.472-59.04 61.696-139.648 70.368zM896 768H128a96 96 0 0 1-96-96v-576a96 96 0 0 1 96-96h768a96 96 0 0 1 96 96V672a96 96 0 0 1-96 96z m32-672a32 32 0 0 0-32-32H128a32 32 0 0 0-32 32V672a32 32 0 0 0 32 32h768a32 32 0 0 0 32-32v-576z"  horiz-adv-x="1024" />

    
    <glyph glyph-name="guizeguanli1" unicode="&#58908;" d="M192 768V832H64v-896h128v64h-64V224h64v64h-64V512h64v64h-64V768h64zM960 258.33v59.34a25.14 25.14 0 0 1-20.21 24.65l-76.67 15.33a25.25 25.25 0 0 0-18.75 16.2q-3.81 10.49-8.51 20.53a25.26 25.26 0 0 0 1.79 24.74L881 484.19a25.14 25.14 0 0 1-3.14 31.73l-42 42a25.14 25.14 0 0 1-31.67 3.08l-65.06-43.38a25.26 25.26 0 0 0-24.74-1.79q-10 4.69-20.53 8.51a25.25 25.25 0 0 0-16.2 18.75l-15.33 76.67A25.14 25.14 0 0 1 637.67 640h-59.34a25.14 25.14 0 0 1-24.65-20.21l-15.33-76.67a25.25 25.25 0 0 0-16.2-18.75q-10.49-3.81-20.53-8.51a25.26 25.26 0 0 0-24.74 1.79L411.81 561a25.14 25.14 0 0 1-31.73-3.14l-42-42a25.14 25.14 0 0 1-3.08-31.67l43.38-65.06a25.26 25.26 0 0 0 1.79-24.74q-4.69-10-8.51-20.53a25.25 25.25 0 0 0-18.75-16.2l-76.67-15.33A25.14 25.14 0 0 1 256 317.67v-59.35a25.14 25.14 0 0 1 20.21-24.65l76.67-15.33a25.25 25.25 0 0 0 18.75-16.2q3.81-10.49 8.51-20.53a25.26 25.26 0 0 0-1.79-24.74L335 91.81a25.14 25.14 0 0 1 3.14-31.73l42-42a25.14 25.14 0 0 1 31.67-3.08l65.06 43.38a25.26 25.26 0 0 0 24.74 1.79q10-4.69 20.53-8.51a25.25 25.25 0 0 0 16.2-18.75l15.33-76.67A25.14 25.14 0 0 1 578.33-64h59.35a25.14 25.14 0 0 1 24.65 20.21l15.33 76.67a25.25 25.25 0 0 0 16.2 18.75q10.49 3.81 20.53 8.51a25.26 25.26 0 0 0 24.74-1.79L804.19 15a25.14 25.14 0 0 1 31.73 3.14l42 42a25.14 25.14 0 0 1 3.08 31.67l-43.38 65.06a25.26 25.26 0 0 0-1.79 24.74q4.69 10 8.51 20.53a25.25 25.25 0 0 0 18.75 16.2l76.67 15.33A25.14 25.14 0 0 1 960 258.33z m-245.33-77A150.86 150.86 0 1 0 758.86 288a149.87 149.87 0 0 0-44.19-106.67z"  horiz-adv-x="1024" />

    
    <glyph glyph-name="fuhao-zifu" unicode="&#58889;" d="M669.708846-68.065199c0.943981-17.439651-2.271955-33.135337-9.50381-47.055059-7.231855-13.951721-26.255475-16.575668-57.102858-7.823843-20.271595 6.223876-33.823324 13.743725-40.783184 22.559549-6.943861 8.799824-11.231775 19.199616-12.975741 31.215375-1.071979 7.599848-2.927941 13.791724-5.47189 18.52763a33.327333 33.327333 0 0 1-10.175797 11.583768c-6.239875 4.655907-21.599568 10.719786-46.159077 18.159637a4143.677126 4143.677126 0 0 0-38.175236 11.583768c-13.087738 4.335913-24.223516 6.767865-33.407332 7.215856-9.215816 0.47999-18.97562-3.00794-29.199416-10.49579-11.055779-8.287834-20.559589-14.079718-28.431431-17.423652-7.855843-3.327933-19.727605-2.335953-35.615288 2.975941-15.903682 5.279894-21.679566 15.551689-17.375653 30.719385 4.239915 15.167697 10.51179 27.375452 18.767625 36.52727l195.932081 234.587308c9.167817 10.399792 18.879622 17.295654 29.087419 20.655587 10.207796 3.327933 19.9996 3.471931 29.311413 0.351993l38.559229-12.863743a61.534769 61.534769 0 0 0 23.615528-14.49571c6.799864-6.719866 10.767785-18.543629 11.855763-35.535289l17.247655-300.969981zM519.99984 85.49973c5.103898-1.711966 10.095798-1.583968 14.911702 0.447991 4.847903 2.031959 7.343853 5.631887 7.48785 10.767785l-0.191996 53.022939c0 10.927781-2.223956 16.703666-6.655867 17.423652-4.49591 0.687986-9.295814-2.01596-14.351713-8.063839l-34.847303-45.99908a12.383752 12.383752 0 0 1-1.551969-10.415792c1.00798-3.98392 3.615928-6.639867 7.807844-8.063838l27.391452-9.119818zM941.767405 426.356913a46.719066 46.719066 0 0 0 21.823563-22.319554c4.863903-10.063799 8.079838-21.631567 9.615808-34.703306 2.959941-27.535449-1.967961-49.00702-14.671707-64.46271-12.767745-15.455691-39.231215-25.567489-79.534409-30.335394l-71.102578-8.431831c-9.695806-1.151977-17.935641 0.799984-24.687506 5.823883-6.799864 5.055899-10.959781 14.01572-12.447751 26.831464l-25.823484 217.723645c-1.263975 10.607788 0.783984 19.647607 6.223876 27.103458 5.48789 7.407852 12.079758 11.631767 19.887602 12.559749l70.734585 8.415832c25.263495 3.00794 45.087098-0.767985 59.486811-11.263775 14.399712-10.447791 22.783544-27.263455 25.215495-50.398992 0.895982-10.0158 1.423972-18.031639 1.663967-24.01552 0.239995-5.98388-0.399992-10.815784-1.823964-14.47971-2.431951-6.303874-2.175956-13.295734 0.847983-21.00758 2.943941-7.743845 7.807844-13.423732 14.591709-17.039659z m-106.381873 40.095198a31.071379 31.071379 0 0 1 18.623628 9.071819c5.215896 5.247895 7.263855 12.559749 6.175876 21.887562a28.191436 28.191436 0 0 1-9.00782 17.935641c-5.167897 4.767905-11.759765 6.687866-19.887602 5.695886l-5.663887-0.655987c-5.887882-0.687986-9.743805-3.615928-11.551768-8.719825-1.727965-5.119898-2.111958-11.903762-1.087979-20.319594 0.99198-8.751825 3.359933-15.263695 7.055859-19.599608 3.679926-4.319914 8.751825-6.063879 15.343693-5.295894z m32.607348-146.669067c9.903802 1.791964 17.967641 5.551889 24.303514 11.183777 6.287874 5.663887 8.879822 13.311734 7.695846 22.99154a30.351393 30.351393 0 0 1-9.599808 19.055619c-5.551889 5.199896-13.759725 7.167857-24.687506 5.855883l-12.175757-1.423972c-6.879862-0.815984-11.711766-3.855923-14.575708-9.119818-2.895942-5.215896-3.727925-12.815744-2.52795-22.831543 1.215976-10.303794 4.287914-17.551649 9.247816-21.711566 4.895902-4.175916 11.375772-5.599888 19.503609-4.303914l2.815944 0.303994zM252.117198 261.960201c12.191756-4.063919 20.49559-11.471771 24.9595-22.239555 4.415912-10.799784 3.887922-22.159557-1.519969-34.047319-4.271915-9.535809-17.599648-20.303594-40.047199-32.351353-22.415552-12.031759-48.447031-15.151697-78.110438-9.295815-38.943221 7.743845-68.158637 28.655427-87.646247 62.702746-19.455611 34.01532-24.575508 73.134537-15.327694 117.341654 10.879782 52.062959 32.943341 87.342253 66.238676 105.869882 33.263335 18.527629 66.174677 24.575508 98.702026 18.143637 21.407572-4.47991 38.01524-13.551729 49.839003-27.167456 11.823764-13.695726 19.071619-25.791484 21.727565-36.367273 2.319954-10.175796 0.239995-17.935641-6.319873-23.247535-6.49587-5.327893-12.959741-7.327853-19.359613-5.99988-6.063879 1.279974-10.527789 3.50393-13.359733 6.703866a92.430151 92.430151 0 0 1-11.00778 10.127797 79.950401 79.950401 0 0 1-11.679766 8.287835c-3.663927 2.079958-10.671787 3.99992-21.087578 5.823883-13.647727 2.47995-27.247455-1.279974-40.879183-11.263775-13.615728-9.9838-23.087538-27.615448-28.367432-52.942941-4.911902-21.695566-3.055939-40.399192 5.551889-56.158877 8.607828-15.759685 19.279614-25.151497 32.047359-28.191436 8.111838-2.095958 14.287714-3.391932 18.431631-3.887922 4.159917-0.49599 9.375812-0.095998 15.599688 1.199976a371.99256 371.99256 0 0 1 22.415552 5.663887c7.855843 2.271955 14.319714 2.687946 19.199616 1.295974zM368.48287 755.00634c5.455891-2.031959 9.423812-5.055899 12.079759-9.103818 2.607948-4.047919 4.623908-8.319834 5.951881-12.767745 1.423972-4.815904 2.351953-10.063799 2.895942-15.775684 0.431991-5.711886-1.327973-11.375772-5.263895-16.975661-2.943941-3.695926-7.167857-7.199856-12.671746-10.431791-5.439891-3.263935-13.00774-6.335873-22.623548-9.183816-13.695726-4.095918-22.831543-10.431791-27.343453-19.02362-4.47991-8.623828-4.815904-19.391612-0.959981-32.335353 3.743925-12.623748 5.615888-22.543549 5.551889-29.823404-0.031999-7.263855-1.215976-13.055739-3.583928-17.407652a23.295534 23.295534 0 0 0-10.207796-9.375812 103.389932 103.389932 0 0 0-12.287754-4.575909 62.878742 62.878742 0 0 0-14.975701-2.623947 24.175516 24.175516 0 0 0-12.911742 2.799944c-4.335913 2.335953-8.399832 6.559869-12.239755 12.687746-3.855923 6.111878-7.48785 14.895702-10.879782 26.383473-3.551929 11.855763-9.087818 20.687586-16.671667 26.511469-7.583848 5.807884-17.087658 6.99186-28.607428 3.583929a131.389372 131.389372 0 0 0-25.919481-5.327894c-7.679846-0.671987-14.415712-0.047999-20.255595 1.855963a29.471411 29.471411 0 0 0-12.463751 8.367833c-3.343933 3.855923-5.98388 8.911822-7.855843 15.215695a46.847063 46.847063 0 0 0-2.031959 16.03168c0.303994 5.135897 2.335953 10.063799 6.159877 14.847703 3.183936 4.175916 7.871843 7.98384 14.127717 11.455771 6.223876 3.455931 14.335713 6.671867 24.367513 9.663806 12.927741 3.855923 21.135577 9.823804 24.591508 17.935642 3.439931 8.047839 3.055939 19.135617-1.135977 33.231335-2.751945 9.231815-4.255915 16.99166-4.479911 23.151537-0.239995 6.191876 0.431991 11.343773 2.079959 15.471691 2.255955 5.919882 5.679886 10.239795 10.303794 13.023739 4.607908 2.783944 9.327813 4.911902 14.159716 6.335873 5.183896 1.551969 10.031799 2.287954 14.479711 2.207956 4.447911-0.095998 8.351833-1.055979 11.727765-2.863942 5.183896-2.51195 9.663807-6.703866 13.439731-12.639748 3.775924-5.951881 6.97586-13.359733 9.615808-22.223555 4.527909-15.199696 10.623788-25.087498 18.223636-29.679407 7.663847-4.591908 18.319634-4.831903 31.99936-0.735985 10.703786 3.183936 19.551609 4.751905 26.415471 4.799904 6.895862 0.079998 12.591748-0.815984 17.199656-2.687946zM635.437531 895.963521c31.743365 0.49599 52.414952-7.439851 61.966761-23.807524 9.551809-16.383672 14.335713-29.647407 14.335713-39.823204 0-12.671747-1.951961-22.895542-5.807884-30.703386-3.823924-7.807844-9.951801-15.327693-18.399632-22.49555-3.199936-2.239955-6.351873-4.399912-9.48781-6.511869-3.103938-2.111958-6.287874-4.159917-9.50381-6.143878a72.046559 72.046559 0 0 1-14.49571-11.151777 44.895102 44.895102 0 0 1-10.239795-15.087698 17.279654 17.279654 0 0 0-11.343773-10.607788c-4.735905-2.223956-9.743805-1.471971-15.0237 2.239956-5.375892 3.727925-8.01584 8.447831-8.015839 14.143717 0 6.191876 1.48797 13.535729 4.431911 21.96756 3.00794 8.383832 8.191836 16.367673 15.663687 23.791525 4.9759 5.215896 9.871803 10.607788 14.671706 16.191676 4.847903 5.599888 7.48785 11.615768 8.03184 18.063638 0.51199 4.959901-0.751985 10.319794-3.695927 16.159677-3.00794 5.823884-7.119858 9.263815-12.335753 10.239795-3.967921 0.97598-8.703826 0.97598-14.303714 0s-10.767785-4.223916-15.455691-9.663806c-1.951961-2.49595-4.367913-4.959901-7.231855-7.455851a27.199456 27.199456 0 0 0-8.367833-5.199896c-5.695886-2.97594-10.831783-3.247935-15.247695-0.767985-4.463911 2.51195-6.959861 7.935841-7.439851 16.383673-0.271995 4.207916 4.703906 13.583728 14.879703 28.111437 10.159797 14.49571 27.615448 21.855563 52.414951 22.127558z m-6.287874-185.660287c10.863783 0 18.351633-3.199936 22.319554-9.50381 3.951921-6.335873 5.951881-13.215736 5.951881-20.623588 0-7.455851-1.99996-14.335713-5.951881-20.671586-3.951921-6.351873-11.183776-9.48781-21.583569-9.48781-10.703786 0-18.031639 3.087938-22.143557 9.311813a36.799264 36.799264 0 0 0-6.127877 20.863583c0 7.407852 2.111958 14.303714 6.287874 20.623588 4.223916 6.287874 11.279774 9.48781 21.247575 9.48781z"  horiz-adv-x="1024" />

    
    <glyph glyph-name="dianya" unicode="&#58918;" d="M868.352 564.224l-417.792-49.152L622.592 891.904 278.528 824.32 155.648 285.696l342.016 43.008-63.488-456.704 434.176 692.224zM204.8 332.8l106.496 456.704 251.904 49.152-172.032-362.496 432.128 57.344-342.016-526.336 49.152 350.208-325.632-24.576z"  horiz-adv-x="1024" />

    
    <glyph glyph-name="shebei2" unicode="&#58951;" d="M623.936 157.568H544c-17.664 0-32-14.528-32-32.32s14.336-32.256 32-32.256h79.936c17.6 0 31.936 14.464 31.936 32.256s-14.336 32.32-31.936 32.32zM795.456 157.568h-79.872a32.256 32.256 0 0 1 0-64.576h79.872c17.664 0 32 14.464 32 32.256s-14.336 32.32-32 32.32zM998.336 169.024l-180.736 474.88C790.912 720.256 762.432 768 694.528 768H325.376c-67.968 0-97.536-49.28-123.008-124.096L17.792 159.104l0.192-3.648a120.32 120.32 0 0 1-11.584-51.712C6.4 46.528 44.224 0 91.008 0h842.048c46.72 0 84.544 46.528 84.544 103.744a118.528 118.528 0 0 1-19.264 65.28zM184.768 320.512l3.712 9.6v0.064l101.312 266.048c18.24 53.824 39.552 89.28 88.448 89.28h265.472c48.96 0 69.504-34.368 88.576-89.28l102.784-270.4c13.184-34.88-23.04-40.512-23.04-40.512H217.984c-37.952 0.064-37.056 22.08-33.216 35.2z m689.92-251.904H149.248a59.136 59.136 0 0 0-58.88 59.392c0 32.896 26.368 59.52 58.88 59.52h725.44c32.576 0 59.008-26.624 59.008-59.52a59.2 59.2 0 0 0-59.008-59.392zM292.992 349.376h444.032s20.672-0.128 9.856 28.352v0.064l-74.432 195.712c-16.704 48-23.68 48-28.736 48H378.24c-4.608 0-12.288 0-27.904-45.888L275.456 378.88c-2.496-6.912-8.768-29.504 17.536-29.504z"  horiz-adv-x="1024" />

    
    <glyph glyph-name="icon_renwujincheng" unicode="&#60296;" d="M448 0a32 32 0 0 0 0-64H163.04C108.16-64 64-18.624 64 36.928V731.072C64 786.624 108.16 832 163.04 832h569.92C787.84 832 832 786.624 832 731.072v-182.464a32 32 0 0 0-64 0V731.072C768 751.68 752.096 768 732.96 768H163.04C143.904 768 128 751.68 128 731.072v-694.144C128 16.32 143.904 0 163.04 0H448zM736-64a256 256 0 1 0 0 512 256 256 0 0 0 0-512z m0 64a192 192 0 1 1 0 384 192 192 0 0 1 0-384zM752 208h79.456a32 32 0 1 0 0-64H720a32 32 0 0 0-32 32v96a32 32 0 0 0 64 0v-64zM288 544a32 32 0 0 0 0 64h320a32 32 0 0 0 0-64H288zM288 288a32 32 0 0 0 0 64h64a32 32 0 0 0 0-64H288z"  horiz-adv-x="1024" />

    
    <glyph glyph-name="icon_baocun" unicode="&#60302;" d="M941.248 544L672 813.248A64 64 0 0 1 626.752 832H128a64 64 0 0 1-64-64v-768a64 64 0 0 1 64-64h768a64 64 0 0 1 64 64V498.752A64 64 0 0 1 941.248 544zM256 768h48v-160H256V768z m112 0H512v-160h-144V768zM256 0v192h512v-192H256z m640 0h-64v224a32 32 0 0 1-32 32H224a32 32 0 0 1-32-32v-224H128V768h64v-192a32 32 0 0 1 32-32h320a32 32 0 0 1 32 32V768h50.752L896 498.752V0z"  horiz-adv-x="1024" />

    
    <glyph glyph-name="icon_bangzhuwendang" unicode="&#60306;" d="M896 832H234.656C157.728 832 96 767.2 96 688c0-5.472 0.992-10.688 1.536-16H96v-576c0-88.032 68.544-160 153.92-160H896V608H234.656C193.792 608 160 643.488 160 688S193.792 768 234.656 768H896V832z m-432-288H640v-172.192l-68.192 53.696a31.968 31.968 0 0 1-39.584 0L464 371.808V544z m-229.344 0H400v-238.112a32 32 0 0 1 51.808-25.152l100.192 78.912 100.192-78.912A32 32 0 0 1 704 305.888V544h128v-544H249.92C200.608 0 160 42.656 160 96V566.976c21.536-14.368 47.04-22.976 74.656-22.976zM255.776 720H832v-64H255.776z"  horiz-adv-x="1024" />

    
    <glyph glyph-name="GPU" unicode="&#58882;" d="M112.213333 896h799.573334A112.213333 112.213333 0 0 0 1024 783.786667v-799.573334A112.213333 112.213333 0 0 0 911.786667-128H112.213333A112.213333 112.213333 0 0 0 0-15.786667V783.786667A112.213333 112.213333 0 0 0 112.213333 896z m0.682667-56.888889A56.007111 56.007111 0 0 1 56.888889 783.104v-798.208A56.007111 56.007111 0 0 1 112.896-71.111111h798.208A56.007111 56.007111 0 0 1 967.111111-15.104V783.104A56.007111 56.007111 0 0 1 911.104 839.111111H112.896z m352.981333-566.741333H419.555556V476.444444h94.279111c53.688889 0 82.204444-21.902222 82.204444-64.810666 0-43.192889-28.814222-65.336889-82.787555-65.336889h-47.374223v-73.927111z m0 112.867555h45.312c14.506667 0 24.618667 2.332444 30.464 6.542223 5.262222 3.982222 8.064 10.439111 8.064 19.854222 0 9.443556-2.787556 15.672889-8.248889 19.228444-5.930667 4.295111-16.028444 6.627556-30.293333 6.627556h-45.297778v-52.252445z m213.333334 91.207111v-125.155555c0-15.402667 3.569778-25.927111 10.695111-32.568889 7.395556-6.912 19.626667-10.581333 36.977778-10.581333 17.066667 0 29.269333 3.683556 36.579555 10.496 7.068444 6.826667 10.780444 17.550222 10.780445 32.64V476.444444h46.321777v-124.643555c0-26.595556-8.391111-47.488-25.173333-62.051556-16.583111-14.08-39.523556-21.105778-68.522667-21.105777-29.511111 0-52.380444 6.869333-68.551111 20.892444-16.995556 14.748444-25.429333 35.612444-25.429333 62.264889V476.444444h46.321778z m-394.097778-119.139555v39.168h96.341333v-91.064889l-2.730666-2.133333c-10.481778-8.220444-22.712889-14.549333-36.906667-19.2-14.648889-4.494222-30.663111-6.741333-47.985778-6.741334-32.512 0-58.112 10.439111-76.444444 31.388445-16.967111 19.271111-25.386667 44.245333-25.386667 74.467555 0 30.435556 8.391111 55.665778 25.272889 75.420445 17.92 21.390222 42.396444 32.056889 72.817778 32.056889 26.126222 0 46.890667-5.916444 62.336-18.147556 15.246222-11.946667 24.647111-29.44 28.401777-52.494222l1.336889-8.248889H338.488889l-1.180445 5.660444c-2.332444 11.192889-7.267556 19.271111-14.961777 24.704-7.68 5.632-18.474667 8.533333-32.284445 8.533334-16.654222 0-29.354667-5.404444-38.940444-16.64-10.439111-11.861333-15.658667-28.615111-15.658667-50.844445 0-21.717333 4.707556-37.688889 14.165333-48.554666 9.756444-11.619556 25.443556-17.592889 47.416889-17.592889 8.277333 0 16.483556 1.137778 24.732445 3.256889 5.745778 1.521778 11.036444 3.697778 16.184889 6.570666v30.435556h-52.864z"  horiz-adv-x="1024" />

    
    <glyph glyph-name="tubiao-zhexiantu" unicode="&#60310;" d="M896 0H96a32 32 0 0 0-32 32V672a32 32 0 0 0 64 0v-608h768a32 32 0 1 0 0-64zM247.008 256a32 32 0 0 0-20.992 56.192l200.992 174.24a32 32 0 0 0 42.272-0.288l172.128-153.44 229.088 246.304a32 32 0 0 0 46.88-43.616l-250.432-269.216a31.936 31.936 0 0 0-44.704-2.08l-174.56 155.52-179.744-155.84a31.872 31.872 0 0 0-20.928-7.776z"  horiz-adv-x="1024" />

    
    <glyph glyph-name="tubiao-zhuzhuangtu" unicode="&#60311;" d="M896 0H96a32 32 0 0 0-32 32V672a32 32 0 0 0 64 0v-608h768a32 32 0 1 0 0-64zM512 143.84a32 32 0 0 0-32 32V545.376a32 32 0 0 0 64 0v-369.536a32 32 0 0 0-32-32zM320 143.424a32 32 0 0 0-32 32V384a32 32 0 0 0 64 0v-208.576a32 32 0 0 0-32-32zM896 143.328a32 32 0 0 0-32 32V732.512a32 32 0 1 0 64 0v-557.184a32 32 0 0 0-32-32zM704 143.264a32 32 0 0 0-32 32V672a32 32 0 1 0 64 0v-496.736a32 32 0 0 0-32-32z"  horiz-adv-x="1024" />

    
    <glyph glyph-name="xingzhuang-tupian" unicode="&#60312;" d="M928 0H96a32 32 0 0 0-32 32V736a32 32 0 0 0 32 32h832a32 32 0 0 0 32-32v-116.864a32 32 0 1 0-64 0V704H128v-640h768V427.456l-206.336-244.736a31.968 31.968 0 0 0-44.896-4l-196.064 162.752-194.656-180.224a31.936 31.936 0 1 0-43.456 46.944l215.232 199.296a32.032 32.032 0 0 0 42.176 1.152l193.216-160.384 242.336 287.456a32.128 32.128 0 0 0 35.424 9.44c12.608-4.608 21.024-16.64 21.024-30.08V32a32 32 0 0 0-32-32zM304 416C242.24 416 192 466.24 192 528S242.24 640 304 640 416 589.76 416 528 365.76 416 304 416z m0 160c-26.464 0-48-21.536-48-48S277.536 480 304 480s48 21.536 48 48-21.536 48-48 48z"  horiz-adv-x="1024" />

    
    <glyph glyph-name="shebeizhongxin" unicode="&#58971;" d="M992-64h-67.2V547.2c0 16-12.8 28.8-28.8 28.8s-32-12.8-32-28.8V-64h-192V723.2C672 800 608 864 531.2 864H236.8C160 864 96 800 96 723.2V-64H32c-16 0-32-16-32-32s16-32 32-32h960c16 0 32 16 32 32s-16 32-32 32zM160-64V723.2C160 764.8 195.2 800 236.8 800h291.2C572.8 800 608 764.8 608 723.2V-64H160zM480 640H288c-16 0-32-16-32-32s16-32 32-32h192c16 0 32 16 32 32s-16 32-32 32zM480 448H288c-16 0-32-16-32-32s16-32 32-32h192c16 0 32 16 32 32s-16 32-32 32zM480 256H288c-16 0-32-16-32-32s16-32 32-32h192c16 0 32 16 32 32s-16 32-32 32z"  horiz-adv-x="1024" />

    
    <glyph glyph-name="neicun2" unicode="&#58910;" d="M951.917202-48.368268V275.570413h-71.371084c-24.942123 0.732246-44.621229 21.93305-43.911866 47.378593V452.625162c-0.675039 25.445542 18.969743 46.646346 43.911866 47.367151H951.917202V618.741989a78.785073 78.785073 0 0 1-30.89162 63.419352L742.609314 872.316425v-0.183062A68.785341 68.785341 0 0 1 690.974543 896H108.118319A36.143196 36.143196 0 0 1 72.078096 859.959777v-951.919554A36.143196 36.143196 0 0 1 108.118319-128h807.758659a36.143196 36.143196 0 0 1 36.040224 36.040223v43.591509zM512.569716 786.163128a36.715263 36.715263 0 0 0 36.61229 36.612291 36.715263 36.715263 0 0 0 36.612291-36.612291v-218.529608a36.715263 36.715263 0 0 0-36.612291-36.612291 36.715263 36.715263 0 0 0-36.61229 36.612291z m-146.449162 1.144135a36.715263 36.715263 0 0 0 36.61229 36.61229 36.715263 36.715263 0 0 0 36.612291-36.61229v-219.673743a36.715263 36.715263 0 0 0-36.612291-36.612291 36.715263 36.715263 0 0 0-36.61229 36.612291z m-146.449162 1.144134c0 20.13676 16.475531 34.324022 36.61229 34.324022s36.612291-14.187263 36.612291-34.324022v-219.673743a36.715263 36.715263 0 0 0-36.612291-36.612291 36.715263 36.715263 0 0 0-36.61229 36.612291z m512.572067-770.002235H219.671392V238.122905h512.572067z m0 549.184358a36.715263 36.715263 0 0 0-36.612291-36.612291 36.715263 36.715263 0 0 0-36.61229 36.612291V786.163128a36.715263 36.715263 0 0 0 36.61229 36.612291 36.715263 36.715263 0 0 0 36.612291-36.612291z"  horiz-adv-x="1024" />

    
    </font>
</defs>
</svg>
